<?xml version="1.0" encoding="UTF-8" standalone="no"?>
<!-- Created with Inkscape (http://www.inkscape.org/) -->

<svg
   id="svg2"
   sodipodi:docname="White-Stupid-Cute-Cartoon-Sheep.svg"
   viewBox="0 0 800.00055 800.00056"
   version="1.1"
   inkscape:version="1.2.2 (b0a8486541, 2022-12-01)"
   xml:space="preserve"
   width="800"
   height="800"
   inkscape:export-filename="White-Stupid-Cute-Cartoon-Sheep.png"
   inkscape:export-xdpi="96"
   inkscape:export-ydpi="96"
   xmlns:inkscape="http://www.inkscape.org/namespaces/inkscape"
   xmlns:sodipodi="http://sodipodi.sourceforge.net/DTD/sodipodi-0.dtd"
   xmlns:xlink="http://www.w3.org/1999/xlink"
   xmlns="http://www.w3.org/2000/svg"
   xmlns:svg="http://www.w3.org/2000/svg"
   xmlns:rdf="http://www.w3.org/1999/02/22-rdf-syntax-ns#"
   xmlns:cc="http://creativecommons.org/ns#"
   xmlns:dc="http://purl.org/dc/elements/1.1/"><title
     id="title6176">Sheeped</title><defs
     id="defs153"><radialGradient
       id="radialGradient5171-44"
       gradientUnits="userSpaceOnUse"
       cy="706.76001"
       cx="-71.040001"
       gradientTransform="matrix(1,0,0,1.0446,0,-31.503)"
       r="51.765999"><stop
         id="stop5150-88"
         stop-color="#fff"
         offset="0" /><stop
         id="stop5152-7"
         stop-color="#cae6e9"
         stop-opacity="0"
         offset="1" /></radialGradient><radialGradient
       inkscape:collect="always"
       xlink:href="#radialGradient5171-44"
       id="radialGradient915"
       gradientUnits="userSpaceOnUse"
       gradientTransform="matrix(1,0,0,1.0446,0,-31.503)"
       cx="-71.040001"
       cy="706.76001"
       r="51.765999" /><radialGradient
       inkscape:collect="always"
       xlink:href="#radialGradient5171-44"
       id="radialGradient917"
       gradientUnits="userSpaceOnUse"
       gradientTransform="matrix(1,0,0,1.0446,0,-31.503)"
       cx="-71.040001"
       cy="706.76001"
       r="51.765999" /><radialGradient
       inkscape:collect="always"
       xlink:href="#radialGradient5171-44"
       id="radialGradient919"
       gradientUnits="userSpaceOnUse"
       gradientTransform="matrix(1,0,0,1.0446,0,-31.503)"
       cx="-71.040001"
       cy="706.76001"
       r="51.765999" /><radialGradient
       inkscape:collect="always"
       xlink:href="#radialGradient5171-44"
       id="radialGradient921"
       gradientUnits="userSpaceOnUse"
       gradientTransform="matrix(1,0,0,1.0446,0,-31.503)"
       cx="-71.040001"
       cy="706.76001"
       r="51.765999" /><radialGradient
       inkscape:collect="always"
       xlink:href="#radialGradient5171-44"
       id="radialGradient923"
       gradientUnits="userSpaceOnUse"
       gradientTransform="matrix(1,0,0,1.0446,0,-31.503)"
       cx="-71.040001"
       cy="706.76001"
       r="51.765999" /><radialGradient
       inkscape:collect="always"
       xlink:href="#radialGradient5171-44"
       id="radialGradient925"
       gradientUnits="userSpaceOnUse"
       gradientTransform="matrix(1,0,0,1.0446,0,-31.503)"
       cx="-71.040001"
       cy="706.76001"
       r="51.765999" /><radialGradient
       inkscape:collect="always"
       xlink:href="#radialGradient5171-44"
       id="radialGradient927"
       gradientUnits="userSpaceOnUse"
       gradientTransform="matrix(1,0,0,1.0446,0,-31.503)"
       cx="-71.040001"
       cy="706.76001"
       r="51.765999" /><radialGradient
       inkscape:collect="always"
       xlink:href="#radialGradient5171-44"
       id="radialGradient929"
       gradientUnits="userSpaceOnUse"
       gradientTransform="matrix(1,0,0,1.0446,0,-31.503)"
       cx="-71.040001"
       cy="706.76001"
       r="51.765999" /><radialGradient
       inkscape:collect="always"
       xlink:href="#radialGradient5171-44"
       id="radialGradient931"
       gradientUnits="userSpaceOnUse"
       gradientTransform="matrix(1,0,0,1.0446,0,-31.503)"
       cx="-71.040001"
       cy="706.76001"
       r="51.765999" /><radialGradient
       inkscape:collect="always"
       xlink:href="#radialGradient5171-44"
       id="radialGradient933"
       gradientUnits="userSpaceOnUse"
       gradientTransform="matrix(1,0,0,1.0446,0,-31.503)"
       cx="-71.040001"
       cy="706.76001"
       r="51.765999" /><radialGradient
       inkscape:collect="always"
       xlink:href="#radialGradient5171-44"
       id="radialGradient935"
       gradientUnits="userSpaceOnUse"
       gradientTransform="matrix(1,0,0,1.0446,0,-31.503)"
       cx="-71.040001"
       cy="706.76001"
       r="51.765999" /><radialGradient
       inkscape:collect="always"
       xlink:href="#radialGradient5171-44"
       id="radialGradient937"
       gradientUnits="userSpaceOnUse"
       gradientTransform="matrix(1,0,0,1.0446,0,-31.503)"
       cx="-71.040001"
       cy="706.76001"
       r="51.765999" /><radialGradient
       inkscape:collect="always"
       xlink:href="#radialGradient5171-44"
       id="radialGradient939"
       gradientUnits="userSpaceOnUse"
       gradientTransform="matrix(1,0,0,1.0446,0,-31.503)"
       cx="-71.040001"
       cy="706.76001"
       r="51.765999" /><radialGradient
       inkscape:collect="always"
       xlink:href="#radialGradient5171-44"
       id="radialGradient941"
       gradientUnits="userSpaceOnUse"
       gradientTransform="matrix(1,0,0,1.0446,0,-31.503)"
       cx="-71.040001"
       cy="706.76001"
       r="51.765999" /><radialGradient
       inkscape:collect="always"
       xlink:href="#radialGradient5171-44"
       id="radialGradient943"
       gradientUnits="userSpaceOnUse"
       gradientTransform="matrix(1,0,0,1.0446,0,-31.503)"
       cx="-71.040001"
       cy="706.76001"
       r="51.765999" /><radialGradient
       inkscape:collect="always"
       xlink:href="#radialGradient5171-44"
       id="radialGradient945"
       gradientUnits="userSpaceOnUse"
       gradientTransform="matrix(1,0,0,1.0446,0,-31.503)"
       cx="-71.040001"
       cy="706.76001"
       r="51.765999" /><clipPath
       clipPathUnits="userSpaceOnUse"
       id="clipPath5603"><circle
         style="display:inline;fill:#000000;fill-opacity:0.405315"
         id="circle5605"
         cx="30.985199"
         cy="19.02725"
         r="8.8652554" /></clipPath><linearGradient
       id="linearGradient10345"><stop
         id="stop10347"
         style="stop-color:#0489ac;stop-opacity:.53846"
         offset="0" /><stop
         id="stop10349"
         style="stop-color:#0034ff"
         offset="1" /></linearGradient><radialGradient
       id="radialGradient10461"
       xlink:href="#linearGradient10345"
       gradientUnits="userSpaceOnUse"
       cy="145.36"
       cx="254"
       gradientTransform="matrix(1,0,0,0.93363,0,9.6477)"
       r="226.04"
       inkscape:collect="always" /><linearGradient
       id="linearGradient10463"
       y2="145.36"
       xlink:href="#linearGradient10345"
       gradientUnits="userSpaceOnUse"
       x2="480.04"
       y1="145.36"
       x1="27.959"
       inkscape:collect="always" /><clipPath
       clipPathUnits="userSpaceOnUse"
       id="clipPath1604"><ellipse
         style="display:inline;fill:#000000;fill-opacity:0.405315;stroke-width:1.08752"
         id="ellipse1606"
         cx="88.842079"
         cy="14.192035"
         rx="9.6880388"
         ry="9.5945406"
         transform="rotate(3.8792624)" /></clipPath><clipPath
       clipPathUnits="userSpaceOnUse"
       id="clipPath1608"><ellipse
         style="display:inline;fill:#000000;fill-opacity:0.405315;stroke-width:46.1334"
         id="ellipse1610"
         cx="400"
         cy="381.82611"
         rx="399.99997"
         ry="418.17392" /></clipPath><clipPath
       clipPathUnits="userSpaceOnUse"
       id="clipPath1612"><ellipse
         style="display:inline;fill:#000000;fill-opacity:0.405315;stroke-width:29.1735"
         id="ellipse1614"
         cx="146.67712"
         cy="459.92303"
         rx="250.11111"
         ry="267.44144" /></clipPath><clipPath
       clipPathUnits="userSpaceOnUse"
       id="clipPath1616"><ellipse
         style="display:inline;fill:#000000;fill-opacity:0.405315;stroke-width:27.7483"
         id="ellipse1618"
         cx="208.1857"
         cy="279.3761"
         rx="228.73793"
         ry="264.55798"
         transform="matrix(0.95641938,-0.29199654,0.23472585,0.97206161,0,0)" /></clipPath><clipPath
       clipPathUnits="userSpaceOnUse"
       id="clipPath1608-3"><ellipse
         style="display:inline;fill:#000000;fill-opacity:0.405315;stroke-width:46.1334"
         id="ellipse1610-5"
         cx="400"
         cy="381.82611"
         rx="399.99997"
         ry="418.17392" /></clipPath></defs><sodipodi:namedview
     id="namedview72"
     fit-margin-left="0"
     inkscape:zoom="0.69879908"
     borderopacity="1"
     inkscape:current-layer="layer2"
     inkscape:cx="364.91176"
     inkscape:cy="498.71273"
     inkscape:window-maximized="1"
     showgrid="false"
     fit-margin-right="0"
     bordercolor="#666666"
     inkscape:window-x="0"
     guidetolerance="10"
     objecttolerance="10"
     inkscape:window-y="18"
     fit-margin-bottom="0"
     inkscape:window-width="1920"
     inkscape:pageopacity="0"
     inkscape:pageshadow="2"
     pagecolor="#ffffff"
     gridtolerance="10"
     inkscape:window-height="1043"
     fit-margin-top="0"
     inkscape:showpageshadow="true"
     inkscape:pagecheckerboard="false"
     inkscape:deskcolor="#d1d1d1"
     showborder="true"
     borderlayer="true"
     inkscape:lockguides="false" /><metadata
     id="metadata150"><rdf:RDF><cc:Work><dc:format>image/svg+xml</dc:format><dc:type
           rdf:resource="http://purl.org/dc/dcmitype/StillImage" /><cc:license
           rdf:resource="http://creativecommons.org/publicdomain/zero/1.0/" /><dc:title>Sheeped</dc:title><dc:date>2026-04-07</dc:date><dc:creator><cc:Agent><dc:title>TheUnknown</dc:title></cc:Agent></dc:creator><dc:contributor><cc:Agent><dc:title>Sheep: https://publicdomainvectors.org/en/free-clipart/Vector-illustration-of-silly-white-cartoon-sheep/22016.html
Red box with lid: https://freesvg.org/vector-image-of-red-storage-box-with-lid
Rainbow cloud: https://freesvg.org/clouds-with-rainbow-image
Aircraft: https://freesvg.org/passenger-aircraft</dc:title></cc:Agent></dc:contributor></cc:Work><cc:License
         rdf:about="http://creativecommons.org/publicdomain/zero/1.0/"><cc:permits
           rdf:resource="http://creativecommons.org/ns#Reproduction" /><cc:permits
           rdf:resource="http://creativecommons.org/ns#Distribution" /><cc:permits
           rdf:resource="http://creativecommons.org/ns#DerivativeWorks" /></cc:License></rdf:RDF></metadata><g
     inkscape:groupmode="layer"
     id="layer3"
     inkscape:label="Clip"
     style="display:none"
     sodipodi:insensitive="true"><ellipse
       style="display:inline;fill:#000000;fill-opacity:0.405315;stroke-width:46.1336"
       id="circle5601"
       cx="400.00003"
       cy="381.82608"
       rx="399.99997"
       ry="418.17392"
       clip-path="url(#clipPath1608-3)" /></g><g
     inkscape:groupmode="layer"
     id="layer2"
     inkscape:label="Logo"><g
       id="g970"
       transform="matrix(41.193426,-2.9486784,2.7933076,43.484708,-3268.1139,-236.72759)"
       inkscape:label="sheep and plane"
       style="display:inline"
       clip-path="url(#clipPath1604)"><g
         id="layer1-5"
         inkscape:label="Earth"
         transform="matrix(0.04043149,0.01337433,-0.01228717,0.03399364,79.566485,9.4647864)"
         clip-path="url(#clipPath1616)"
         style="display:inline"><path
           id="path9833"
           sodipodi:rx="226"
           sodipodi:ry="211"
           style="fill:url(#radialGradient10461);stroke:url(#linearGradient10463)"
           sodipodi:type="arc"
           d="M 144.85596,-39.400901 A 226,211 0 0 1 451.81584,43.323434 226,211 0 0 1 363.44128,329.97194 226,211 0 0 1 56.348602,247.67833 226,211 0 0 1 144.26173,-39.093837"
           sodipodi:open="true"
           transform="matrix(1,0,0,1.0474,104,162.11)"
           sodipodi:cy="145.36218"
           sodipodi:cx="254"
           sodipodi:end="4.2053767"
           sodipodi:start="4.2083819"
           sodipodi:arc-type="arc" /><g
           id="g10428"
           style="fill:#00d400"
           transform="matrix(0.98858,-0.15067,0.15067,0.98858,-43.329,61.85)"><path
             id="path10353"
             style="fill:#00d400"
             d="m 229,151.36 -28,25 42,10 -7,31 -1,60 12,18 5,-14 7,10 7,33 14,20 31,6 10,13 8,17 15,19 -29,31 -4,34 22,17 4,27 -11,12 45,-6 24,-38 26,-32 16,-33 -39,-14 -10,-11 -23,7 -7,-7 -5,-46 -1,-18 -20,12 -18,-9 -11,-22 5,-23 24,-2 14,3 8,12 18,-1 -27,-28 9,-18 29,-20 26,-15 -3,-10 -19,-2 3,-13 19,-7 10,-16 -22,-3 -43,3 -8,26 -28,-3 -1,-13 16,-24 15,-2 -2,-21 h -39 l -22,20 -17,-13 h -14 l -12,10 z" /><path
             id="path10355"
             style="fill:#00d400"
             d="m 380,113.36 -21,15 31,15 22,9 11,4 v -11 l -10,-19 -2,-11 -20,-1 h -6 z" /><path
             id="path10357"
             style="fill:#00d400"
             d="m 457,124.36 -15,4 21,28 12,-7 3,-4 10,8 21,12 -6,1 -6,10 h -7 l -10,-5 1,11 3,2 -1,4 4,8 8,-4 -5,5 5,3 12,-9 -11,-4 3,-3 v -2 l 1,-9 13,7 12,24 -16,3 -2,17 13,18 5,-2 -2,11 -10,2 1,11 16,22 21,-2 4,-28 5,4 2,31 -19,16 -17,15 14,13 11,2 5,16 1,18 -8,23 16,-31 7,-49 -2,-33 -11,-41 -20,-42 -18,-23 -20,-22 -23,-18 z" /></g></g><g
         id="layer1"
         transform="matrix(0.04434062,0.00818489,-0.00858652,0.03873376,84.774806,0.36619698)"
         inkscape:label="Rainbow"
         clip-path="url(#clipPath1612)"><path
           id="path4373"
           fill-rule="evenodd"
           fill="#ffc500"
           d="m 328.92,482.42 -2.5235,-0.31316 -0.007,-7.9096 c -0.0195,-23.203 -6.0382,-48.863 -16.624,-70.877 -25.778,-53.607 -76.598,-87.007 -135.94,-89.346 -72.02,-2.8386 -137.44,42.303 -157.58,108.73 -4.9864,16.45 -8.0956,38.871 -6.9719,50.275 l 0.52632,5.3413 -2.6238,0.009 c -1.4431,0.005 -3.9341,0.22512 -5.5356,0.48982 l -2.9117,0.48128 v -11.321 c 0,-33.998 10.595,-66.556 31.059,-95.44 5.8723,-8.2888 21.002,-24.243 29.457,-31.061 24.857,-20.046 56.751,-33.291 89.342,-37.102 9.9452,-1.163 30.092,-1.1664 38.921,-0.007 37.543,4.9319 69.717,20.157 96.089,45.469 14.292,13.718 25.986,29.705 34.627,47.341 11.794,24.07 17.219,45.711 18.053,72.017 l 0.43677,13.782 -2.6348,-0.12427 c -1.4492,-0.0683 -3.7704,-0.26518 -5.1584,-0.43743 z" /><path
           id="path4885"
           fill-rule="evenodd"
           fill="#ce47de"
           d="m 304.85,479.06 c -2.0702,-0.3474 -3.9328,-0.80033 -4.139,-1.0065 -0.20618,-0.20618 -0.69432,-5.2093 -1.0848,-11.118 -2.5716,-38.918 -19.974,-73.282 -49.247,-97.245 -33.488,-27.413 -78.19,-36.163 -120.96,-23.675 -47.092,13.748 -81.295,51.082 -91.076,99.414 -0.67946,3.3574 -1.4262,11.418 -1.6594,17.913 l -0.42403,11.809 -3.5852,0.44413 c -1.9719,0.24428 -4.7693,0.59405 -6.2166,0.77728 l -2.6313,0.33314 0.44056,-12.586 c 0.24231,-6.9224 1.0127,-15.731 1.712,-19.574 11.265,-61.911 61.368,-108.01 125.38,-115.35 10.192,-1.1692 32.031,-0.54001 41.568,1.1977 15.123,2.7556 29.011,7.6759 43.73,15.493 23.042,12.238 44.568,34.032 57.485,58.202 11.001,20.585 17.941,47.535 17.966,69.77 0.008,6.7966 0.43138,6.4925 -7.2514,5.2033 z" /><path
           id="path4887"
           fill-rule="evenodd"
           fill="#ff4e36"
           d="m 316.57,480.86 -2.9117,-0.30458 -0.007,-6.359 c -0.008,-8.0737 -1.7924,-22.951 -3.8351,-31.982 -13.369,-59.107 -58.27,-102.65 -116.9,-113.37 -9.5233,-1.7411 -31.363,-2.3727 -41.568,-1.202 -59.521,6.8282 -107.74,46.963 -123.67,102.93 -3.1776,11.167 -4.5006,20.083 -4.9704,33.498 l -0.43895,12.533 -2.8055,0.46405 c -1.543,0.25522 -4.1702,0.46789 -5.838,0.47258 l -3.0325,0.009 0.49603,-13.394 c 0.98019,-26.467 7.4573,-49.588 19.946,-71.2 32.323,-55.935 98.136,-86.319 163.08,-75.288 50.16,8.5193 91.179,39.428 113.77,85.731 10.698,21.925 16.638,46.793 16.638,69.658 v 8.3765 l -2.5235,-0.13052 c -1.3879,-0.0718 -3.8338,-0.26759 -5.4352,-0.43511 z" /><path
           id="path4889"
           fill-rule="evenodd"
           fill="#3ed6e4"
           d="m 291.72,477.34 -6.0176,-0.75921 -0.0142,-4.7603 c -0.0318,-10.622 -3.8778,-29.704 -8.1699,-40.535 -7.3281,-18.491 -19.88,-36.53 -33.389,-47.986 -44.942,-38.113 -109.84,-37.536 -155.07,1.3772 -13.502,11.615 -26.384,31.159 -32.311,49.017 -2.6644,8.0286 -4.8514,20.551 -5.3213,30.47 -0.51249,10.816 0.30175,9.8199 -8.6711,10.611 l -4.963,0.43765 0.47112,-12.229 c 0.53422,-13.867 2.0702,-22.275 6.367,-34.854 14.46,-42.332 50.292,-73.617 95.39,-83.286 51.978,-11.144 105.01,9.9184 134.7,53.5 13.043,19.143 21.436,42.267 22.994,63.347 0.24974,3.3803 0.64011,8.5046 0.8675,11.387 0.22738,2.8826 0.13021,5.1917 -0.21594,5.1313 -0.34615,-0.0604 -3.3373,-0.45149 -6.647,-0.86905 z" /><path
           id="path4891"
           fill-rule="evenodd"
           fill="#7cff00"
           d="m 345.49,484.88 c -0.64058,-0.13555 -2.4213,-0.45019 -3.9571,-0.69919 l -2.7924,-0.45273 -0.46915,-12.216 c -0.586,-15.259 -2.2397,-27.14 -5.6055,-40.272 -14.61,-57.06 -55.53,-101.93 -109.85,-120.48 -28.7,-9.81 -59.5,-11.7 -90.07,-5.52 -79.825,16.13 -135.88,83.99 -135.88,164.51 v 10.125 l -2.1353,0.009 c -1.1744,0.005 -3.4456,0.22512 -5.047,0.48983 l -2.9117,0.48128 v -12.097 c 0,-27.624 5.8893,-52.772 18.217,-77.788 17.464,-35.43 45.088,-62.9 80.784,-80.33 38.023,-18.56 78.933,-23.69 120.17,-15.07 26.769,5.5965 55.227,19.483 76.659,37.407 39.868,33.342 62.764,81.05 65.699,136.9 0.49478,9.4124 0.0579,15.546 -1.094,15.356 -0.30094,-0.0495 -1.0713,-0.20098 -1.7119,-0.33653 z" /><path
           id="path4941-4"
           stroke="#acacac"
           fill-rule="evenodd"
           fill="#ccf3f5"
           d="m 329.16,434.45 c -4.7507,0.52041 -9.4063,2.7902 -13.214,6.8529 -2.2422,2.3924 -3.9886,5.1804 -5.2319,8.204 -2.2497,-0.80365 -4.6414,-0.96996 -6.964,-0.49927 -0.46152,-0.85239 -0.99183,-1.6611 -1.6039,-2.4298 -5.3999,-6.7816 -14.642,-7.2899 -20.634,-1.1264 -4.5914,4.7228 -5.9419,11.99 -3.8952,18.18 -0.75275,0.62618 -1.492,1.307 -2.1923,2.0543 -1.5896,1.6962 -2.9171,3.597 -4.0058,5.6367 -4.7218,-1.5805 -10.054,-0.41525 -13.983,3.6258 -5.992,6.1635 -6.4674,16.67 -1.0675,23.452 l 0.0947,0.1116 c 4.2835,5.2726 10.904,6.6531 16.428,3.9822 0.30437,0.45092 0.61601,0.90566 0.94856,1.339 l 0.15842,0.19165 c 7.8074,9.971 20.507,11.462 29.739,4.0238 0.56007,2.5491 1.6538,4.9834 3.3116,7.0655 l 0.0948,0.11153 c 5.4209,6.6726 14.588,7.1179 20.538,0.99773 1.1126,-1.1445 2.0282,-2.4314 2.7584,-3.823 7.2804,8.8692 18.526,10.645 27.371,4.9778 0.62099,2.0282 1.6075,3.9472 2.9541,5.6384 l 0.096,0.12863 c 5.4209,6.6726 14.574,7.1192 20.524,0.99907 5.992,-6.1635 6.4686,-16.653 1.0686,-23.435 -2.7807,-3.4922 -6.5755,-5.313 -10.424,-5.4219 0.41571,-0.34491 0.81613,-0.72177 1.2062,-1.123 5.992,-6.1635 6.4686,-16.653 1.0686,-23.435 -5.0202,-6.3048 -13.355,-7.1888 -19.317,-2.3282 -0.47284,-0.21173 -0.94098,-0.41794 -1.4228,-0.59169 1.7388,-8.4099 0.0346,-17.666 -5.2684,-24.575 -5.0443,-6.5721 -12.194,-9.5448 -19.137,-8.7842 z" /><path
           id="path4941-4-6"
           stroke="#acacac"
           fill-rule="evenodd"
           fill="#ccf3f5"
           d="m 1.2077,431.77 c 4.7984,0.85077 9.3767,3.2076 12.965,7.0448 2.1133,2.2596 3.6942,4.8198 4.7463,7.5415 2.3464,-0.506 4.7923,-0.44839 7.123,0.15472 0.52984,-0.69885 1.1266,-1.3542 1.8038,-1.9679 5.9741,-5.4146 15.417,-5.0756 21.08,0.76394 4.3399,4.4746 5.2019,10.878 2.6823,16.063 0.72196,0.6054 1.4263,1.257 2.0864,1.9627 1.4983,1.602 2.7153,3.3591 3.6794,5.2162 4.9172,-0.97004 10.262,0.48786 13.976,4.3165 5.6638,5.8396 5.4067,14.973 -0.56741,20.388 l -0.10436,0.0886 c -4.7315,4.2025 -11.567,4.8394 -17.001,2.0622 -0.34158,0.36464 -0.69083,0.73196 -1.0598,1.079 l -0.17474,0.15252 c -8.6494,7.9722 -21.68,8.1925 -30.551,0.97659 -0.74979,2.1591 -2.0346,4.1739 -3.8687,5.8362 l -0.10437,0.0885 c -5.9878,5.3184 -15.35,4.9313 -20.974,-0.86721 -1.0517,-1.0843 -1.8928,-2.2753 -2.5378,-3.5413 -8.0352,7.0629 -19.605,7.6522 -28.208,2.0018 -0.77506,1.7031 -1.9145,3.2809 -3.4042,4.6311 l -0.10674,0.10325 c -5.9878,5.3184 -15.335,4.9336 -20.959,-0.86483 -5.6638,-5.8396 -5.4091,-14.959 0.56503,-20.373 3.0764,-2.7882 7.067,-4.0444 10.991,-3.8143 -0.39877,-0.33355 -0.77973,-0.69347 -1.1485,-1.0736 -5.6638,-5.8396 -5.4091,-14.959 0.56504,-20.373 5.5541,-5.0339 14.099,-5.0966 19.824,-0.38728 0.49617,-0.14342 0.98717,-0.28244 1.4898,-0.39223 -1.1766,-7.4254 1.2106,-15.293 7.0952,-20.826 5.5974,-5.2632 13.083,-7.2336 20.096,-5.9902 z" /><path
           id="path5092-5-7"
           d="m -64.735,685.8 c 12.223,7.8931 14.449,24.8 6.7523,36.625 -9.6985,14.899 -30.361,17.591 -44.788,8.1284 -18.064,-11.848 -21.303,-36.962 -9.7373,-54.47 14.394,-21.791 44.761,-25.668 65.899,-11.61 26.159,17.397 30.782,53.935 13.783,79.333 -3.3879,5.0617 -7.5201,9.6172 -12.209,13.503"
           transform="matrix(0.3073,0,0,0.26211,317.35,307.29)"
           stroke="#acacac"
           stroke-width="3.5235"
           fill="url(#radialGradient5171-44)"
           style="fill:url(#radialGradient915)" /><path
           id="path5092-5-9"
           d="m -64.735,685.8 c 12.223,7.8931 14.449,24.8 6.7523,36.625 -9.6985,14.899 -30.361,17.591 -44.788,8.1284 -18.064,-11.848 -21.303,-36.962 -9.7373,-54.47 14.394,-21.791 44.761,-25.668 65.899,-11.61 26.159,17.397 30.782,53.935 13.783,79.333 -3.3879,5.0617 -7.5201,9.6172 -12.209,13.503"
           transform="matrix(0,0.21996,-0.21173,0,134.58,468.71)"
           stroke="#acacac"
           stroke-width="3.5235"
           fill="url(#radialGradient5171-44)"
           style="fill:url(#radialGradient917)" /><path
           id="path5092-5-5"
           d="m -64.735,685.8 c 12.223,7.8931 14.449,24.8 6.7523,36.625 -9.6985,14.899 -30.361,17.591 -44.788,8.1284 -18.064,-11.848 -21.303,-36.962 -9.7373,-54.47 14.394,-21.791 44.761,-25.668 65.899,-11.61 26.159,17.397 30.782,53.935 13.783,79.333 -3.3879,5.0617 -7.5201,9.6172 -12.209,13.503"
           transform="matrix(-0.28703,0,0,0.25597,-17.297,307.41)"
           stroke="#acacac"
           stroke-width="3.5235"
           fill="url(#radialGradient5171-44)"
           style="fill:url(#radialGradient919)" /><path
           id="path5092-5-9-6"
           d="m -64.735,685.8 c 12.223,7.8931 14.449,24.8 6.7523,36.625 -9.6985,14.899 -30.361,17.591 -44.788,8.1284 -18.064,-11.848 -21.303,-36.962 -9.7373,-54.47 14.394,-21.791 44.761,-25.668 65.899,-11.61 26.159,17.397 30.782,53.935 13.783,79.333 -3.3879,5.0617 -7.5201,9.6172 -12.209,13.503"
           transform="matrix(0,0.21996,-0.21173,0,112.98,493.32)"
           stroke="#acacac"
           stroke-width="3.5235"
           fill="url(#radialGradient5171-44)"
           style="fill:url(#radialGradient921)" /><path
           id="path5092-5-9-6-5"
           d="m -64.735,685.8 c 12.223,7.8931 14.449,24.8 6.7523,36.625 -9.6985,14.899 -30.361,17.591 -44.788,8.1284 -18.064,-11.848 -21.303,-36.962 -9.7373,-54.47 14.394,-21.791 44.761,-25.668 65.899,-11.61 26.159,17.397 30.782,53.935 13.783,79.333 -3.3879,5.0617 -7.5201,9.6172 -12.209,13.503"
           transform="matrix(0,0.16624,0.18025,0,-120.39,478.17)"
           stroke="#acacac"
           stroke-width="3.5235"
           fill="url(#radialGradient5171-44)"
           style="fill:url(#radialGradient923)" /><path
           id="path5092-5-7-6"
           d="m -64.735,685.8 c 12.223,7.8931 14.449,24.8 6.7523,36.625 -9.6985,14.899 -30.361,17.591 -44.788,8.1284 -18.064,-11.848 -21.303,-36.962 -9.7373,-54.47 14.394,-21.791 44.761,-25.668 65.899,-11.61 26.159,17.397 30.782,53.935 13.783,79.333 -3.3879,5.0617 -7.5201,9.6172 -12.209,13.503"
           transform="matrix(-0.26011,0,0,-0.24345,342.52,652.09)"
           stroke="#acacac"
           stroke-width="3.5235"
           fill="url(#radialGradient5171-44)"
           style="fill:url(#radialGradient925)" /><path
           id="path5092-5-9-6-5-2"
           d="m -64.735,685.8 c 12.223,7.8931 14.449,24.8 6.7523,36.625 -9.6985,14.899 -30.361,17.591 -44.788,8.1284 -18.064,-11.848 -21.303,-36.962 -9.7373,-54.47 14.394,-21.791 44.761,-25.668 65.899,-11.61 26.159,17.397 30.782,53.935 13.783,79.333 -3.3879,5.0617 -7.5201,9.6172 -12.209,13.503"
           transform="matrix(0.21996,0,0,0.21173,310.29,318.72)"
           stroke="#acacac"
           stroke-width="3.5235"
           fill="url(#radialGradient5171-44)"
           style="fill:url(#radialGradient927)" /><path
           id="path5092-5-9-6-5-5"
           d="m -64.735,685.8 c 12.223,7.8931 14.449,24.8 6.7523,36.625 -9.6985,14.899 -30.361,17.591 -44.788,8.1284 -18.064,-11.848 -21.303,-36.962 -9.7373,-54.47 14.394,-21.791 44.761,-25.668 65.899,-11.61 26.159,17.397 30.782,53.935 13.783,79.333 -3.3879,5.0617 -7.5201,9.6172 -12.209,13.503"
           transform="matrix(0,-0.21996,-0.21173,0,475.64,475.4)"
           stroke="#acacac"
           stroke-width="3.5235"
           fill="url(#radialGradient5171-44)"
           style="fill:url(#radialGradient929)" /><path
           id="path5092-5-9-6-5-1"
           d="m -64.735,685.8 c 12.223,7.8931 14.449,24.8 6.7523,36.625 -9.6985,14.899 -30.361,17.591 -44.788,8.1284 -18.064,-11.848 -21.303,-36.962 -9.7373,-54.47 14.394,-21.791 44.761,-25.668 65.899,-11.61 26.159,17.397 30.782,53.935 13.783,79.333 -3.3879,5.0617 -7.5201,9.6172 -12.209,13.503"
           transform="matrix(0,0.21996,-0.21173,0,518.98,529.99)"
           stroke="#acacac"
           stroke-width="3.5235"
           fill="url(#radialGradient5171-44)"
           style="fill:url(#radialGradient931)" /><path
           id="path5092-5-9-6-5-3"
           d="m -64.735,685.8 c 12.223,7.8931 14.449,24.8 6.7523,36.625 -9.6985,14.899 -30.361,17.591 -44.788,8.1284 -18.064,-11.848 -21.303,-36.962 -9.7373,-54.47 14.394,-21.791 44.761,-25.668 65.899,-11.61 26.159,17.397 30.782,53.935 13.783,79.333 -3.3879,5.0617 -7.5201,9.6172 -12.209,13.503"
           transform="matrix(0,-0.16624,-0.18025,0,151.39,463.22)"
           stroke="#acacac"
           stroke-width="3.5235"
           fill="url(#radialGradient5171-44)"
           style="fill:url(#radialGradient933)" /><path
           id="path5092-5-9-6-5-7"
           d="m -64.735,685.8 c 12.223,7.8931 14.449,24.8 6.7523,36.625 -9.6985,14.899 -30.361,17.591 -44.788,8.1284 -18.064,-11.848 -21.303,-36.962 -9.7373,-54.47 14.394,-21.791 44.761,-25.668 65.899,-11.61 26.159,17.397 30.782,53.935 13.783,79.333 -3.3879,5.0617 -7.5201,9.6172 -12.209,13.503"
           transform="matrix(0,0.16624,0.18025,0,-141.39,506.84)"
           stroke="#acacac"
           stroke-width="3.5235"
           fill="url(#radialGradient5171-44)"
           style="fill:url(#radialGradient935)" /><path
           id="path5092-5-9-6-5-57"
           d="m -64.735,685.8 c 12.223,7.8931 14.449,24.8 6.7523,36.625 -9.6985,14.899 -30.361,17.591 -44.788,8.1284 -18.064,-11.848 -21.303,-36.962 -9.7373,-54.47 14.394,-21.791 44.761,-25.668 65.899,-11.61 26.159,17.397 30.782,53.935 13.783,79.333 -3.3879,5.0617 -7.5201,9.6172 -12.209,13.503"
           transform="matrix(0,0.16624,-0.18025,0,99.393,504.17)"
           stroke="#acacac"
           stroke-width="3.5235"
           fill="url(#radialGradient5171-44)"
           style="fill:url(#radialGradient937)" /><path
           id="path5092-5-9-6-5-57-7"
           d="m -64.735,685.8 c 12.223,7.8931 14.449,24.8 6.7523,36.625 -9.6985,14.899 -30.361,17.591 -44.788,8.1284 -18.064,-11.848 -21.303,-36.962 -9.7373,-54.47 14.394,-21.791 44.761,-25.668 65.899,-11.61 26.159,17.397 30.782,53.935 13.783,79.333 -3.3879,5.0617 -7.5201,9.6172 -12.209,13.503"
           transform="matrix(0,0.16624,-0.18025,0,107.39,486.17)"
           stroke="#acacac"
           stroke-width="3.5235"
           fill="url(#radialGradient5171-44)"
           style="fill:url(#radialGradient939)" /><path
           id="path5092-5-9-6-5-57-6"
           d="m -64.735,685.8 c 12.223,7.8931 14.449,24.8 6.7523,36.625 -9.6985,14.899 -30.361,17.591 -44.788,8.1284 -18.064,-11.848 -21.303,-36.962 -9.7373,-54.47 14.394,-21.791 44.761,-25.668 65.899,-11.61 26.159,17.397 30.782,53.935 13.783,79.333 -3.3879,5.0617 -7.5201,9.6172 -12.209,13.503"
           transform="matrix(0,0.16624,0.18025,0,202.61,483.51)"
           stroke="#acacac"
           stroke-width="3.5235"
           fill="url(#radialGradient5171-44)"
           style="fill:url(#radialGradient941)" /><path
           id="path5092-5-9-6-5-57-6-1"
           d="m -64.735,685.8 c 12.223,7.8931 14.449,24.8 6.7523,36.625 -9.6985,14.899 -30.361,17.591 -44.788,8.1284 -18.064,-11.848 -21.303,-36.962 -9.7373,-54.47 14.394,-21.791 44.761,-25.668 65.899,-11.61 26.159,17.397 30.782,53.935 13.783,79.333 -3.3879,5.0617 -7.5201,9.6172 -12.209,13.503"
           transform="matrix(0,0.16624,0.18025,0,155.75,490.1)"
           stroke="#acacac"
           stroke-width="3.5235"
           fill="url(#radialGradient5171-44)"
           style="fill:url(#radialGradient943)" /><path
           id="path5092-5-9-6-5-57-6-8"
           d="m -64.735,685.8 c 12.223,7.8931 14.449,24.8 6.7523,36.625 -9.6985,14.899 -30.361,17.591 -44.788,8.1284 -18.064,-11.848 -21.303,-36.962 -9.7373,-54.47 14.394,-21.791 44.761,-25.668 65.899,-11.61 26.159,17.397 30.782,53.935 13.783,79.333 -3.3879,5.0617 -7.5201,9.6172 -12.209,13.503"
           transform="matrix(0,0.16624,-0.18025,0,439.2,476.1)"
           stroke="#acacac"
           stroke-width="3.5235"
           fill="url(#radialGradient5171-44)"
           style="fill:url(#radialGradient945)" /></g><path
         style="fill:#000000;stroke-width:0.0131075"
         d="m 86.458073,19.893271 c -0.231368,0.08319 -0.905946,0.0891 -1.26396,0.01107 -0.03938,-0.0086 -0.07836,-0.01416 -0.08669,-0.01244 -0.02152,0.0045 -0.123755,-0.09053 -0.109132,-0.101452 0.0069,-0.0051 -0.0019,-0.02212 -0.02457,-0.04661 -0.04271,-0.04599 -0.02917,-0.05391 -0.175438,0.102658 -0.118234,0.126556 -0.133702,0.142797 -0.243186,0.25522 -0.03678,0.03774 -0.103997,0.108511 -0.149427,0.157252 -0.04542,0.04875 -0.151407,0.161012 -0.235527,0.249485 -0.08412,0.08848 -0.171765,0.183239 -0.194771,0.210586 -0.023,0.02735 -0.05627,0.0548 -0.07392,0.06103 -0.04648,0.01639 -0.176096,0.0285 -0.186632,0.01743 -0.005,-0.0051 -0.01449,-0.0054 -0.02122,-2.25e-4 -0.0068,0.0051 -0.01683,0.0041 -0.02255,-0.0016 -0.0056,-0.006 -0.01693,-0.006 -0.02497,-4.4e-5 -0.0081,0.006 -0.04755,0.0021 -0.08771,-0.0088 -0.118283,-0.03193 -0.135839,0.0083 0.234106,-0.535782 0.07811,-0.114869 0.164452,-0.241185 0.191865,-0.280705 0.190964,-0.275251 0.253487,-0.366017 0.379623,-0.551116 0.07822,-0.114766 0.155699,-0.227367 0.172201,-0.250222 0.01651,-0.02285 0.05537,-0.08066 0.08639,-0.128457 0.07304,-0.112569 0.216054,-0.317995 0.237994,-0.341856 0.0094,-0.01023 0.0162,-0.01952 0.01516,-0.02066 -0.0011,-0.0011 0.02572,-0.04202 0.0596,-0.09083 0.3179,-0.458452 0.411149,-0.607012 0.407881,-0.649796 -0.0018,-0.02236 -0.0073,-0.08691 -0.01257,-0.143451 -0.0052,-0.05653 -0.0086,-0.115563 -0.0075,-0.131159 0.0094,-0.139751 -0.06233,-0.179282 -0.253418,-0.139837 -0.692354,0.142908 -1.4794,0.21497 -2.011756,0.184199 -0.03611,-0.0021 -0.06732,0.004 -0.07622,0.01496 -0.0084,0.01015 -0.110848,0.115158 -0.227955,0.233286 -0.117097,0.118132 -0.235636,0.240242 -0.263405,0.271356 -0.02776,0.03111 -0.125485,0.133508 -0.217157,0.227538 l -0.166671,0.170963 -0.08194,0.0064 c -0.04507,0.0035 -0.109088,0.0089 -0.142257,0.012 -0.04124,0.0039 -0.0636,-3.14e-4 -0.07065,-0.01317 -0.01308,-0.02388 -0.02379,0.0018 0.158758,-0.379659 0.215654,-0.450594 0.315164,-0.667828 0.312026,-0.68119 -0.0043,-0.01834 -0.05711,-0.114848 -0.0824,-0.150631 -0.02311,-0.03271 -0.02269,-0.03347 0.0502,-0.09291 l 0.07351,-0.05993 -0.154144,-0.08929 c -0.193553,-0.112103 -0.301353,-0.174059 -0.471058,-0.270704 -0.119038,-0.06779 -0.323691,-0.186814 -0.811307,-0.47185 -0.08059,-0.04712 -0.191276,-0.110784 -0.24594,-0.141517 -0.172494,-0.09694 0.226647,-0.255123 0.429347,-0.170157 0.03848,0.01614 0.07812,0.02987 0.08811,0.03046 0.01,5.66e-4 0.06429,0.01686 0.120706,0.03608 0.05643,0.01921 0.107027,0.03585 0.112476,0.03687 0.0054,10e-4 0.06379,0.0202 0.129656,0.0426 0.06584,0.02248 0.137402,0.04527 0.158963,0.05086 0.02156,0.0055 0.08168,0.02512 0.133565,0.04349 0.115449,0.04079 0.118452,0.03938 0.0601,-0.02742 l -0.0466,-0.05339 0.03177,-0.01977 c 0.04455,-0.02772 0.185434,-0.0546 0.211098,-0.04027 0.01176,0.0065 0.05102,0.03575 0.08728,0.06486 0.03626,0.02913 0.145519,0.1148 0.242803,0.190423 l 0.176887,0.13749 0.31073,0.100449 c 0.170908,0.05522 0.347157,0.11236 0.391678,0.126935 0.0573,0.0188 0.09356,0.02272 0.124144,0.01331 0.17313,-0.0525 0.384367,-0.1001 1.208516,-0.272342 0.334984,-0.07001 0.612981,-0.130207 0.617776,-0.133772 0.0081,-0.006 -0.0068,-0.321298 -0.02428,-0.511472 l -0.0079,-0.08542 -0.369961,-0.549683 c -0.292672,-0.434726 -0.683493,-1.010135 -1.0863,-1.599245 -0.02418,-0.03535 -0.0046,-0.04619 0.164564,-0.0908 0.187617,-0.04947 0.119841,-0.08721 0.708284,0.394053 0.124059,0.101452 0.251409,0.205265 0.283015,0.230691 0.07961,0.06407 0.09979,0.08708 0.08556,0.09766 -0.0068,0.0051 -0.01594,0.0052 -0.02055,3.96e-4 -0.01457,-0.01529 -0.681609,-0.557456 -0.770511,-0.626262 -0.119277,-0.09231 -0.200901,-0.104101 -0.09915,-0.01436 0.02978,0.02628 0.140067,0.128067 0.245103,0.226166 0.214157,0.200057 0.517747,0.477984 0.522555,0.478382 0.0017,9e-5 0.04306,-0.01524 0.09181,-0.03415 0.09565,-0.03713 0.202329,-0.06363 0.284453,-0.07063 0.02832,-0.0024 0.09699,-0.0082 0.152594,-0.013 0.0556,-0.0048 0.106777,-0.01282 0.113694,-0.01796 0.0069,-0.0051 0.09663,-0.027 0.199334,-0.04855 0.102714,-0.02157 0.200454,-0.04374 0.217205,-0.04929 0.111159,-0.03681 0.300215,0.146434 0.272045,0.263675 -0.01346,0.05584 -0.18141,0.133427 -0.509105,0.234893 -0.214611,0.06649 -0.241425,0.01809 0.21481,0.387744 l 0.387215,0.313726 0.04045,-0.01009 c 0.02226,-0.0056 0.123987,-0.01446 0.226076,-0.01978 0.102088,-0.0054 0.210566,-0.01587 0.241052,-0.02344 0.135225,-0.03354 0.595484,-0.07646 0.641339,-0.0598 0.126517,0.04599 0.202854,0.262357 0.107594,0.305057 -0.112969,0.05062 -0.437794,0.140851 -0.677055,0.188044 -0.0902,0.01779 0.08059,0.218718 0.253291,0.297975 0.0085,0.0038 0.332971,-0.06052 0.721306,-0.143037 2.09462,-0.445088 1.978144,-0.425411 2.21112,-0.373548 0.252381,0.05623 0.766706,0.204573 0.91431,0.263795 0.324979,0.130394 0.344121,0.161449 0.200461,0.325369 -0.07081,0.08079 -0.259682,0.194386 -0.395627,0.237849 -0.044,0.01408 -0.100112,0.03406 -0.124707,0.04441 -0.02458,0.01034 -0.04711,0.01957 -0.05004,0.02049 -0.04058,0.01288 -0.63826,0.134373 -0.874497,0.177757 -0.09446,0.01736 -0.292427,0.0561 -0.439909,0.08609 -0.147483,0.03001 -0.415791,0.08364 -0.596244,0.119205 -0.180454,0.03556 -0.353319,0.07107 -0.384144,0.07888 -0.03081,0.0079 -0.06779,0.01502 -0.08217,0.01602 -0.01438,0.0011 -0.05709,0.0087 -0.09493,0.01723 -0.03785,0.0084 -0.206077,0.0426 -0.373865,0.07579 -0.169832,0.0336 -0.312185,0.06874 -0.321121,0.07929 -0.0087,0.01045 -0.07251,0.078 -0.141548,0.150176 -0.06902,0.07218 -0.152042,0.159254 -0.18449,0.193489 -0.03245,0.03424 -0.166769,0.175934 -0.298487,0.314883 -0.131714,0.138948 -0.241411,0.255875 -0.243763,0.259838 -0.0045,0.0075 0.338885,0.06765 0.48952,0.08578 0.04755,0.0059 0.197074,0.0048 0.332273,-0.0019 0.348736,-0.01736 0.398094,-8.48e-4 0.466391,0.156306 0.06493,0.149351 0.01605,0.190643 -0.322526,0.272329 -0.263507,0.06358 -0.656394,0.07428 -0.935957,0.02549 -0.05042,-0.0089 -0.0994,-0.01031 -0.108818,-0.0033 -0.03088,0.02295 -0.119478,-0.02172 -0.125079,-0.06318 -9.33e-4,-0.007 -0.02081,-0.03279 -0.0441,-0.05727 -0.03633,-0.03813 -0.04043,-0.04751 -0.02865,-0.06552 0.02645,-0.04053 -0.0039,-0.05943 -0.03594,-0.02236 -0.0331,0.03819 -0.243423,0.261647 -0.327729,0.348141 -0.06045,0.062 -0.361859,0.379838 -0.503375,0.530784 -0.04746,0.05062 -0.116053,0.123253 -0.15242,0.161402 -0.03638,0.03815 -0.06586,0.07155 -0.06551,0.07423 0.0036,0.02873 0.424889,0.09856 0.583293,0.09677 0.448721,-0.0053 0.602343,0.02486 0.683155,0.133827 0.09041,0.121913 0.08852,0.200146 -0.0056,0.234009 z m 0.03914,-0.111769 c -0.009,-0.0691 -0.0719,-0.155419 -0.132894,-0.182193 -0.06326,-0.02772 -0.386807,-0.05258 -0.568896,-0.04367 l -0.06648,0.0032 0.139453,0.03714 c 0.0767,0.02038 0.136114,0.03964 0.132064,0.04263 -0.0113,0.0084 -0.235939,0.02013 -0.472399,0.02461 -0.28514,0.0054 -0.369135,0.04735 -0.309811,0.154744 0.05175,0.09365 0.628776,0.125505 1.036775,0.05719 0.07167,-0.012 0.141386,-0.02173 0.154894,-0.0216 0.0215,8.8e-5 0.01979,-0.0048 -0.01365,-0.03991 -0.06383,-0.06699 -0.08616,-0.197257 -0.03342,-0.194896 0.05146,0.0023 0.134434,0.141683 0.09976,0.167457 -0.01307,0.0097 -0.01836,0.02736 -0.01256,0.04177 0.01593,0.03945 0.05351,0.0024 0.04716,-0.04659 z m 4.409819,-3.608596 c -0.03178,-0.0207 -0.136341,-0.128604 -0.138107,-0.142657 -5.11e-4,-0.0045 0.06643,-0.02507 0.148934,-0.04554 0.192406,-0.04772 0.188787,-0.05611 -0.0122,-0.02829 -0.193217,0.02676 -0.249856,-0.01804 -0.221104,-0.174831 0.01088,-0.05917 0.04108,-0.04537 -0.298989,-0.136708 -0.425908,-0.114396 -0.489392,-0.119849 -0.7804,-0.06699 -0.300403,0.05458 -4.656051,0.978347 -5.407141,1.146771 -0.170299,0.03819 -0.408756,0.08967 -0.529902,0.114412 -0.252078,0.05148 -0.244536,0.04686 -0.136961,0.08371 0.08596,0.02939 0.109817,0.05071 0.06359,0.05666 -0.0151,0.0018 -0.117716,0.04026 -0.228055,0.08516 -0.208971,0.08501 -0.506893,0.185902 -0.715561,0.242319 -0.06696,0.01811 -0.129924,0.03748 -0.139917,0.04305 -0.01159,0.0065 -0.03915,-0.0018 -0.0771,-0.02368 l -0.05893,-0.03378 -0.07525,0.05592 -0.07525,0.05592 0.03544,0.06056 c 0.03626,0.06194 0.06229,0.07906 0.07457,0.04907 0.0091,-0.02215 0.193902,-0.09746 0.284149,-0.115766 0.304957,-0.06186 0.685459,0.06151 0.665924,0.215915 l -0.0041,0.0322 -0.0081,-0.0431 c -0.03072,-0.164474 -0.426734,-0.24738 -0.734148,-0.153692 -0.221908,0.06762 -0.219146,0.07226 0.03844,0.06436 0.535884,-0.01646 0.499448,-0.02013 0.580518,0.05864 0.09203,0.08942 0.112687,0.0968 0.266433,0.09517 0.389836,-0.004 1.001165,-0.06689 1.250888,-0.128592 0.04647,-0.01148 0.136449,-0.03002 0.19995,-0.04118 0.0635,-0.01115 0.148682,-0.02857 0.189302,-0.03869 l 0.07385,-0.01839 -0.04399,-0.02106 c -0.02419,-0.01154 -0.04684,-0.01895 -0.05036,-0.01639 -0.0035,0.0026 -0.01132,-5.19e-4 -0.01739,-0.0066 -0.01401,-0.01467 0.0048,-0.02161 0.226692,-0.08345 0.09979,-0.02781 0.252469,-0.07137 0.339262,-0.09677 0.618535,-0.181057 0.818767,-0.240611 1.041121,-0.309648 0.270809,-0.08409 0.338703,-0.1009 0.42228,-0.10459 0.176017,-0.0078 0.462525,0.05285 0.503188,0.106461 0.02727,0.03594 0.06354,0.04769 0.113288,0.03665 0.07301,-0.01621 0.5181,-0.104577 0.591058,-0.117348 0.06715,-0.01176 0.269137,-0.05206 0.678296,-0.135344 0.09618,-0.01957 0.186231,-0.0368 0.200137,-0.03828 0.01389,-0.0015 0.0563,-0.0096 0.09418,-0.018 0.124396,-0.02766 0.624237,-0.128859 0.816729,-0.165337 0.10375,-0.01966 0.205472,-0.04115 0.226058,-0.04777 0.02059,-0.0066 0.05788,-0.01452 0.08288,-0.01757 0.206234,-0.0252 0.604033,-0.194892 0.545734,-0.232812 z m -0.720091,-0.217963 c -0.02235,0.01013 -0.04401,0.01161 -0.05098,0.0034 -0.0067,-0.0077 -0.02891,-0.03293 -0.04965,-0.05577 -0.06188,-0.06854 -0.0078,-0.09663 0.104947,-0.05462 0.115632,0.04303 0.115239,0.05271 -0.0043,0.106919 z m -0.13717,0.06787 c -0.04852,0.02477 -0.05896,0.01674 -0.07448,-0.05728 -0.01774,-0.08461 0.03533,-0.131335 0.07672,-0.06749 0.0084,0.01289 0.02574,0.03854 0.03863,0.057 0.01537,0.02202 0.01802,0.03655 0.0077,0.0423 -0.0088,0.0047 -0.0305,0.01628 -0.04853,0.02547 z m 0.171374,-0.203403 -0.08516,-0.02838 0.01175,-0.032 c 0.01183,-0.03205 0.180397,-0.002 0.185438,0.03309 0.0067,0.04661 -0.0286,0.05526 -0.112027,0.0274 z m 0.02713,-0.111253 c -0.0827,-0.02244 -0.08727,-0.02513 -0.09754,-0.05723 -0.02274,-0.07121 0.158683,-0.03588 0.182798,0.03557 0.01645,0.04875 0.01555,0.04896 -0.08525,0.02163 z m -1.595595,0.649971 c -0.04129,-0.01067 -0.08076,-0.07588 -0.05679,-0.0937 0.02308,-0.01716 0.02675,-0.01575 0.06581,0.02518 0.04027,0.04227 0.03531,0.07995 -0.009,0.06846 z m -0.120975,0.01919 c -0.02462,-0.0064 -0.04386,-0.02623 -0.07621,-0.07884 -0.0241,-0.03907 0.04356,-0.01893 0.08598,0.02554 0.04421,0.04641 0.0406,0.06625 -0.0097,0.05321 z m -0.09095,0.02741 c -0.02245,0.0027 -0.08823,-0.06933 -0.08046,-0.08831 0.01024,-0.0249 0.05459,-0.01022 0.08716,0.02876 0.02872,0.03448 0.0264,0.05528 -0.0067,0.05948 z m -0.07403,0.01724 c -0.0105,0.0032 -0.02527,-7.88e-4 -0.03289,-0.009 -0.0076,-0.008 -0.02214,-0.01981 -0.03223,-0.02618 -0.02832,-0.01801 -0.03725,-0.06534 -0.01297,-0.06913 0.02108,-0.0032 0.120931,0.08792 0.104383,0.09535 -0.0041,0.0019 -0.01587,0.0058 -0.02629,0.009 z m -0.114911,0.01346 c -0.07315,-0.01898 -0.107717,-0.115079 -0.03617,-0.100462 0.01189,0.0024 0.07879,0.09791 0.07205,0.102901 -0.0038,0.0027 -0.01992,0.0016 -0.03589,-0.0025 z m -0.09269,0.03003 c -0.03889,0.01132 -0.124718,-0.08607 -0.09013,-0.102264 0.01702,-0.008 0.02895,-0.0013 0.07197,0.04012 0.02845,0.02726 0.04807,0.05133 0.04381,0.0533 -0.0042,0.002 -0.01579,0.0059 -0.02567,0.0088 z m -0.142465,0.01792 c -0.04603,-0.02914 -0.07291,-0.07709 -0.05199,-0.09265 0.01814,-0.01348 0.02546,-0.01029 0.06683,0.02907 0.04808,0.04583 0.0364,0.09596 -0.01479,0.06353 z m -0.09439,0.02843 c -0.04276,-0.01122 -0.09965,-0.09548 -0.07011,-0.104016 0.01649,-0.0046 0.03513,-0.0027 0.04137,0.0047 0.0062,0.0073 0.02468,0.0285 0.04116,0.04684 0.02873,0.03217 0.02179,0.06135 -0.01247,0.05244 z m -0.108267,0.01661 c -0.04472,-1.52e-4 -0.103065,-0.07339 -0.07148,-0.08964 0.02328,-0.01197 0.02882,-0.0094 0.05913,0.02675 0.0412,0.04927 0.04389,0.06301 0.01235,0.06287 z m -0.108997,0.02527 c -0.03839,0.0064 -0.112547,-0.07557 -0.08053,-0.08906 0.02679,-0.01128 0.02591,-0.01177 0.06972,0.0394 0.03579,0.04181 0.03656,0.04535 0.01083,0.04968 z m -0.11566,0.03109 c -0.02724,-6.23e-4 -0.09618,-0.06483 -0.09313,-0.08692 0.0047,-0.03427 0.04362,-0.02264 0.08932,0.02668 0.0466,0.05036 0.04729,0.06099 0.0038,0.06019 z m -0.124712,0.0265 c -0.02916,0.0084 -0.09922,-0.08456 -0.073,-0.09684 0.01702,-0.008 0.02757,-0.0022 0.06108,0.03286 0.04059,0.0426 0.0429,0.05504 0.01193,0.06398 z m -0.108827,0.01114 c -0.04085,-0.02586 -0.07291,-0.0771 -0.05608,-0.08962 0.01335,-0.0099 0.02472,-0.0041 0.06274,0.03214 0.0477,0.04547 0.04269,0.08873 -0.0067,0.05749 z m -0.123164,0.01427 c -0.0483,-0.03639 -0.06633,-0.07277 -0.04178,-0.08428 0.03365,-0.01578 0.122081,0.0725 0.09372,0.09357 -0.01467,0.01089 -0.02845,0.0084 -0.05195,-0.0093 z m -0.08954,0.0391 c -0.01694,-0.0079 -0.08844,-0.07924 -0.08918,-0.08907 -0.0021,-0.02836 0.05816,-0.0098 0.09553,0.02936 0.0418,0.0439 0.03794,0.08015 -0.0063,0.05968 z m -0.106851,0.02968 c -0.01978,0.0068 -0.117437,-0.08416 -0.10238,-0.09536 0.02379,-0.01769 0.04811,-0.0092 0.08545,0.03001 0.04269,0.0448 0.04548,0.05552 0.01696,0.06527 z m -0.10319,0.01586 c -0.02953,0.004 -0.101353,-0.058 -0.09771,-0.08441 0.0048,-0.03477 0.04709,-0.02348 0.0931,0.02479 0.04833,0.05074 0.04855,0.05354 0.0046,0.05961 z m -0.107248,0.02407 c -0.0309,-1.64e-4 -0.102488,-0.07791 -0.08859,-0.09632 0.01158,-0.0154 0.06265,0.02199 0.09216,0.06738 0.0144,0.0222 0.01359,0.02898 -0.0035,0.02894 z m -0.123316,0.02104 c -0.01834,-0.0085 -0.0802,-0.09154 -0.07248,-0.09729 0.02281,-0.01696 0.04758,-0.0077 0.08499,0.03145 0.03926,0.04121 0.03079,0.08582 -0.01258,0.06581 z m -0.09732,0.0233 c -0.04241,-0.01452 -0.09091,-0.08883 -0.06323,-0.09703 0.01646,-0.0049 0.02679,2.08e-4 0.0395,0.01976 0.0095,0.0145 0.02764,0.03737 0.04036,0.05084 0.02674,0.02822 0.01999,0.03892 -0.01662,0.02645 z m -0.09385,0.02948 c -0.03542,0.0048 -0.106301,-0.09489 -0.07421,-0.104414 0.01674,-0.005 0.03021,0.0034 0.0663,0.04134 0.04455,0.04678 0.04596,0.0579 0.008,0.06308 z m -0.104342,0.02196 c -0.01754,0.0025 -0.06675,-0.04594 -0.07728,-0.07588 -0.01528,-0.0434 0.03387,-0.03295 0.07472,0.01593 0.03652,0.04364 0.037,0.05531 0.0026,0.06001 z m -0.132949,-0.02184 c -0.04071,-0.04723 -0.04511,-0.06715 -0.01426,-0.06467 0.02948,0.0023 0.08896,0.08647 0.07074,0.09999 -0.01362,0.01011 -0.0217,0.005 -0.05648,-0.03534 z m -0.03761,0.05585 c -0.03255,-0.0084 -0.0916,-0.08634 -0.07491,-0.09876 0.01461,-0.01085 0.02219,-0.0062 0.06129,0.03785 0.041,0.04614 0.04617,0.06938 0.01361,0.06092 z m -0.07841,0.0089 c -0.038,-0.02405 -0.07374,-0.07745 -0.06209,-0.09273 0.0097,-0.0126 0.01705,-0.008 0.05268,0.03338 0.04161,0.04825 0.04717,0.08327 0.0094,0.05934 z m -0.154594,-0.0099 c -0.0377,-0.03956 -0.03982,-0.0452 -0.02043,-0.05432 0.01194,-0.0057 0.0242,-0.0059 0.02734,-4.19e-4 0.0032,0.0054 0.01967,0.02432 0.03672,0.0422 0.02412,0.02531 0.02739,0.03525 0.01471,0.04466 -0.01363,0.01011 -0.0232,0.0049 -0.05837,-0.03205 z m -0.06462,0.05844 c -0.04536,-0.02873 -0.0841,-0.09676 -0.05537,-0.09729 0.0375,-7.66e-4 0.113534,0.08201 0.09089,0.09883 -0.0083,0.0061 -0.02434,0.0055 -0.03552,-0.0016 z m -0.06684,0.02068 c -0.02574,0.0035 -0.0327,-0.001 -0.06197,-0.04079 -0.04045,-0.05497 -0.04058,-0.05584 -0.0089,-0.05642 0.02012,-4.55e-4 0.120181,0.09107 0.101737,0.09298 -10e-4,6.5e-5 -0.01486,0.0018 -0.03084,0.0041 z m -0.0964,0.02139 c -0.02839,0.01052 -0.105278,-0.07401 -0.08263,-0.09085 0.02084,-0.01548 0.05226,0.0039 0.07955,0.04921 0.01434,0.02379 0.01534,0.0371 0.003,0.04165 z m -0.107739,0.02569 c -0.0146,0.0027 -0.09116,-0.06946 -0.09357,-0.08809 -0.0036,-0.02828 0.04285,-0.0199 0.07463,0.01337 0.0355,0.03727 0.04382,0.07013 0.01893,0.07466 z m -0.120397,0.0092 c -0.04513,-0.0234 -0.07353,-0.06484 -0.05421,-0.07921 0.01335,-0.0099 0.0247,-0.004 0.06274,0.03214 0.05179,0.04936 0.047,0.07582 -0.0086,0.04707 z m -0.09415,0.01998 c -0.05607,-0.05212 -0.07314,-0.09671 -0.03444,-0.08991 0.03128,0.0055 0.08704,0.08324 0.06924,0.09648 -0.0088,0.0065 -0.0238,0.0036 -0.0348,-0.0065 z m -0.105015,0.01002 c -0.04059,-0.03059 -0.05597,-0.06179 -0.03733,-0.07565 0.01253,-0.0093 0.0231,-0.0035 0.05676,0.03194 0.04878,0.05122 0.03415,0.08412 -0.01952,0.04369 z m -0.08669,0.02017 c -0.04026,-0.04224 -0.05411,-0.09446 -0.02133,-0.08034 0.04938,0.02125 0.08945,0.08178 0.0658,0.09935 -0.01141,0.0086 -0.02287,0.0037 -0.04442,-0.01908 z m -0.08492,0.04721 c -0.01877,-0.0049 -0.09262,-0.0856 -0.08407,-0.09194 0.02392,-0.01779 0.04809,-0.0092 0.08608,0.03059 0.03887,0.04079 0.03789,0.07159 -0.0019,0.06125 z m -0.07291,0.01721 c -0.0088,0.0012 -0.03338,-0.01678 -0.05697,-0.04156 -0.03367,-0.03534 -0.03796,-0.04422 -0.02242,-0.04665 0.01052,-0.0018 0.02069,-0.004 0.02256,-0.0055 0.0019,-0.0014 0.02202,0.01695 0.04477,0.04088 0.04087,0.0429 0.04221,0.04877 0.01208,0.05286 z m -0.105617,0.0202 c -0.01808,-0.001 -0.09042,-0.08492 -0.07962,-0.09237 0.0175,-0.01208 0.04734,0.0026 0.07543,0.03704 0.03289,0.0404 0.03417,0.057 0.0041,0.05531 z m -0.123327,-0.02304 c -0.03026,-0.03173 -0.038,-0.04587 -0.02886,-0.05267 0.0161,-0.01197 0.04742,0.0082 0.07364,0.04723 0.03461,0.05163 0.0028,0.05549 -0.04477,0.0055 z m -0.06136,0.03785 c -0.03494,-0.03668 -0.04966,-0.06653 -0.03732,-0.07569 0.01403,-0.01043 0.04067,0.0076 0.06942,0.04687 0.03131,0.04285 0.0043,0.06709 -0.0321,0.02884 z m -0.06531,0.02845 c -0.03612,-0.02288 -0.06284,-0.07371 -0.0455,-0.0866 0.01336,-0.0099 0.02319,-0.0047 0.05748,0.0314 0.04338,0.04553 0.03483,0.08484 -0.01198,0.0552 z m -0.06856,0.01528 c -0.03893,-0.02465 -0.06221,-0.06617 -0.04682,-0.08364 0.01349,-0.01532 0.01937,-0.01253 0.05709,0.02706 0.04355,0.04571 0.03624,0.08603 -0.01025,0.05659 z m -0.09476,0.02739 c -0.02793,-0.01418 -0.06334,-0.08727 -0.04786,-0.09878 0.01334,-0.0099 0.02314,-0.0046 0.05742,0.03146 0.03938,0.04135 0.03266,0.08875 -0.0096,0.06731 z m -0.108908,-0.01638 c -0.03846,-0.04036 -0.04061,-0.04593 -0.02115,-0.05505 0.01773,-0.0083 0.02818,-0.0033 0.0578,0.02785 0.02964,0.03111 0.03347,0.04105 0.02114,0.05506 -0.01349,0.01536 -0.01938,0.01253 -0.05778,-0.02785 z m -0.07911,0.04096 c -0.03431,-0.0237 -0.05562,-0.07635 -0.03239,-0.07997 0.01007,-0.0017 0.01979,-0.004 0.02165,-0.0054 0.002,-0.0014 0.01968,0.01456 0.03958,0.03544 0.04227,0.04436 0.0197,0.08343 -0.02881,0.04991 z m 3.3572,1.073313 c -0.09649,-0.08721 -0.123239,-0.237659 -0.03582,-0.201653 l 0.03473,0.01433 -0.02245,-0.02359 c -0.01689,-0.01773 -0.04391,-0.02337 -0.108807,-0.02288 -0.296204,0.0024 -0.325294,0.0055 -0.29936,0.03274 0.03369,0.03535 -0.249721,0.0991 -0.578811,0.130202 -0.16068,0.01519 -0.261843,0.106216 -0.208265,0.187402 0.06717,0.101776 0.725623,0.07891 1.124845,-0.03907 0.06592,-0.01947 0.124405,-0.03424 0.129967,-0.0328 0.01748,0.0044 0.01476,0.0012 -0.03601,-0.04469 z m 0.08648,-0.0457 c -0.0057,-0.04385 -0.01586,-0.06596 -0.04291,-0.09321 l -0.03543,-0.03575 0.02765,0.04042 c 0.03551,0.05188 0.0442,0.100745 0.02104,0.117961 -0.01009,0.0075 -0.01338,0.02244 -0.0073,0.03332 0.02047,0.03742 0.04473,-0.0036 0.03707,-0.06276 z m -2.123694,1.302529 c -0.07532,-0.01752 -0.272634,-0.06456 -0.438516,-0.104327 -0.165876,-0.03979 -0.306388,-0.07161 -0.312258,-0.07064 -0.02787,0.0046 0.221862,0.199559 0.262455,0.204909 0.01456,0.0019 0.02323,0.006 0.01922,0.0089 -0.01876,0.01395 0.139084,0.01977 0.353503,0.01309 0.284719,-0.0089 0.28968,-0.01116 0.115572,-0.05184 z m -1.549135,0.832281 c 0.693721,-0.729132 0.848529,-0.894972 0.850799,-0.911433 8.51e-4,-0.0063 -0.01906,-0.03321 -0.04432,-0.05973 -0.05714,-0.05997 -0.04389,-0.06874 -0.227949,0.151093 -0.07797,0.09315 -0.230569,0.273379 -0.339093,0.400519 -0.208921,0.244763 -0.34469,0.406367 -0.501191,0.596575 -0.05267,0.06401 -0.09799,0.118333 -0.100716,0.120722 -0.0099,0.0088 0.06575,0.0047 0.07856,-0.0041 0.0073,-0.005 0.135032,-0.137196 0.283903,-0.293666 z m -0.138984,-0.0088 c 0.147937,-0.176638 0.30602,-0.364452 0.351297,-0.417362 0.300497,-0.351132 1.730912,-2.052 2.476474,-2.9447 0.15885,-0.1902 0.174257,-0.210243 0.163698,-0.212983 -0.0041,-0.001 -0.06409,0.01395 -0.133468,0.03328 -0.06938,0.01934 -0.178346,0.04942 -0.242127,0.06684 -0.06378,0.01742 -0.237655,0.06829 -0.386387,0.113048 -0.148732,0.04476 -0.297635,0.08897 -0.330894,0.09825 -0.297921,0.08313 -0.764279,0.224456 -0.763391,0.231338 3.4e-4,0.002 0.02661,0.02122 0.05847,0.04249 0.03191,0.02121 0.06453,0.04856 0.0725,0.06066 0.01202,0.01818 0.03135,0.01785 0.111713,-0.0024 0.05346,-0.0134 0.109644,-0.02727 0.124878,-0.03088 0.03204,-0.0075 0.06031,0.0074 0.04822,0.02531 -0.0046,0.0067 4.3e-5,0.110396 0.01025,0.230227 l 0.01852,0.217878 0.03847,-0.0046 c 0.09149,-0.01084 0.09242,-0.01329 0.0761,-0.202984 -0.01805,-0.20983 -0.01179,-0.194619 -0.0762,-0.186921 -0.07108,0.0085 -0.06746,-0.0067 0.0055,-0.02323 0.0781,-0.01763 0.07581,-0.02261 0.09352,0.204385 0.0014,0.01927 0.0073,0.07543 0.01258,0.124817 l 0.0099,0.08979 -0.06327,0.01014 c -0.09832,0.01574 -0.105927,0.02441 -0.541575,0.617256 -0.193121,0.262816 -0.188923,0.25309 -0.104242,0.241428 0.03599,-0.005 0.07351,-0.0035 0.08338,0.0031 0.01197,0.0082 0.01168,0.01312 -0.001,0.01515 -0.01052,0.0018 -0.03189,0.02441 -0.0477,0.05052 -0.02693,0.04472 -0.233532,0.323551 -0.428121,0.577854 -0.04773,0.06238 -0.0866,0.121095 -0.08637,0.130467 2.77e-4,0.01127 -0.04748,0.01978 -0.140314,0.02509 l -0.140736,0.008 -0.101069,0.1452 c -0.05561,0.07986 -0.135199,0.194836 -0.176927,0.255504 -0.04171,0.06066 -0.167979,0.243683 -0.280591,0.406708 -0.130873,0.189466 -0.200241,0.301135 -0.192265,0.309505 0.01133,0.01189 0.19337,0.02684 0.206691,0.01694 0.0032,-0.0024 0.126681,-0.148696 0.274612,-0.325337 z m 3.100857,-2.291036 c -0.871706,-0.137229 -0.910209,-0.142559 -0.856767,-0.118775 0.1042,0.0464 0.142545,0.06845 0.21892,0.126137 0.158101,0.119352 0.153014,0.11711 0.247194,0.108895 0.199515,-0.01741 0.460346,-0.06323 0.495078,-0.08699 0.0092,-0.0063 -0.03329,-0.01813 -0.104435,-0.02924 z m -1.938347,1.21313 c 0.03085,-0.03189 0.07369,-0.07568 0.0952,-0.0973 0.02151,-0.02161 0.06396,-0.06581 0.09432,-0.09822 0.09632,-0.102781 0.708662,-0.748876 0.855812,-0.902979 0.167281,-0.175184 0.163003,-0.150079 0.03614,-0.211873 -0.151614,-0.07384 -0.138014,-0.08693 0.06063,-0.05836 0.09969,0.01439 0.167613,0.01804 0.166505,0.009 -0.0023,-0.0182 0.07209,-0.09975 0.445139,-0.488276 0.607465,-0.632688 0.575894,-0.586277 0.42285,-0.621636 -0.122013,-0.02824 -0.330603,-0.04 -0.322712,-0.0183 0.0026,0.0071 -0.08231,0.115405 -0.188669,0.24059 -0.106354,0.125184 -0.334104,0.395457 -0.506093,0.600604 -0.292199,0.348531 -0.438068,0.522043 -0.580674,0.690701 -0.143082,0.169222 -0.794307,0.952586 -0.809633,0.973916 l -0.01692,0.02364 0.09002,0.02382 c 0.0577,0.01533 0.09217,0.01827 0.09606,0.0082 0.0032,-0.0085 0.03128,-0.04167 0.06213,-0.07357 z m -0.556653,0.10233 c 0.05079,-0.0672 0.176351,-0.233492 0.279023,-0.369511 l 0.186678,-0.247304 -0.06206,0.0056 c -0.07764,0.007 -0.09031,0.01583 -0.152202,0.106373 -0.02757,0.04034 -0.140807,0.19678 -0.251615,0.347633 -0.212475,0.289269 -0.212645,0.2896 -0.144826,0.286251 0.05489,-0.0028 0.03869,0.0118 0.145012,-0.129012 z m 0.0245,-0.234935 c 0.298518,-0.402543 0.27827,-0.366826 0.206384,-0.364037 l -0.05512,0.0021 -0.08667,0.131658 c -0.09201,0.139768 -0.207968,0.311027 -0.328074,0.484548 -0.08196,0.118413 -0.07945,0.112968 -0.05707,0.123311 0.02808,0.01297 0.05044,-0.01337 0.320563,-0.37762 z m 0.492383,-0.668846 c 0.096,-0.132256 0.22513,-0.308975 0.286981,-0.392699 0.132688,-0.179631 0.132916,-0.180595 0.03611,-0.163712 -0.09021,0.01573 -0.07029,-0.002 -0.18307,0.162818 -0.0512,0.07481 -0.123233,0.179109 -0.160073,0.231754 -0.03684,0.05264 -0.08128,0.117761 -0.09874,0.144703 -0.01754,0.02692 -0.07076,0.105925 -0.1184,0.175531 l -0.08664,0.126551 0.06275,-0.0052 c 0.03452,-0.0029 0.06812,-0.01287 0.07467,-0.02224 0.0066,-0.0093 0.09047,-0.125229 0.186447,-0.257491 z m 0.415456,-0.818743 c -0.0202,-0.26016 -0.0089,-0.242013 -0.133034,-0.212652 -0.108578,0.02567 -0.104328,0.02079 -0.08119,0.09298 0.0027,0.0082 0.0098,0.09794 0.01608,0.199324 l 0.01124,0.184329 0.09612,-0.02045 c 0.05288,-0.01126 0.09872,-0.02157 0.101902,-0.02294 0.0032,-0.0015 -0.0018,-0.100644 -0.01111,-0.220578 z m 1.484897,-1.674349 c -0.01518,-0.01173 -0.174606,-0.141246 -0.354264,-0.288014 -0.410593,-0.335398 -0.360203,-0.306592 -0.492043,-0.281263 -0.169077,0.03249 -0.158724,0.02372 -0.09556,0.08089 0.03017,0.02732 0.130179,0.118765 0.222233,0.203235 0.09204,0.08447 0.223784,0.204984 0.292739,0.267808 l 0.12536,0.114236 0.152519,-0.03066 c 0.181489,-0.03648 0.185473,-0.03824 0.149022,-0.06622 z m -0.335836,0.08113 c -0.0076,-0.008 -0.05427,-0.05048 -0.103679,-0.09436 -0.103074,-0.09158 -0.502138,-0.454512 -0.828742,-0.75369 -0.260053,-0.238215 -1.127266,-1.033058 -1.378884,-1.263819 -0.09515,-0.08727 -0.223576,-0.204691 -0.285391,-0.260954 l -0.112394,-0.102282 -0.06636,0.01696 c -0.03649,0.0093 -0.08487,0.02579 -0.10751,0.03659 l -0.04113,0.01965 0.178474,0.26326 c 0.09816,0.144789 0.21498,0.317766 0.259603,0.384385 0.04462,0.06661 0.08253,0.122588 0.08423,0.124387 0.0016,0.0018 0.02915,-0.0058 0.06097,-0.01679 0.05707,-0.01979 0.05824,-0.01954 0.08662,0.01733 0.01583,0.02056 0.08986,0.108738 0.164523,0.195932 0.07469,0.08717 0.20865,0.244611 0.297726,0.349816 0.08908,0.105201 0.167922,0.194051 0.175209,0.197432 0.02936,0.01356 0.0057,0.03128 -0.07859,0.05866 -0.114769,0.03732 -0.127938,0.04765 -0.105249,0.08262 0.05426,0.08368 0.300835,0.441685 0.312968,0.45442 0.0096,0.01031 0.05969,5.63e-4 0.155987,-0.02985 0.200424,-0.0633 0.189139,-0.06682 0.199103,0.06208 0.0046,0.05952 0.01385,0.160405 0.02055,0.224197 l 0.0122,0.115989 -0.08097,0.02242 -0.08097,0.02242 0.0096,0.07972 0.0096,0.07972 0.617016,-0.129215 c 0.657603,-0.137691 0.646386,-0.134874 0.625307,-0.157001 z m 0.839525,-0.677831 c -0.0137,-0.07884 -0.104096,-0.163978 -0.172938,-0.162905 -0.159127,0.0025 -0.353447,0.02451 -0.326436,0.037 0.05134,0.02374 -0.231721,0.158731 -0.450726,0.214961 -0.04856,0.01247 0.09546,0.185529 0.144913,0.174134 0.01038,-0.0024 0.03023,-0.0055 0.04416,-0.007 0.102718,-0.01069 0.524568,-0.113931 0.626399,-0.1533 0.03076,-0.01189 0.0651,-0.02516 0.07633,-0.02947 0.04892,-0.01885 0.06443,-0.03834 0.05832,-0.07344 z m -0.0733,0.04013 c -0.09426,-0.07008 -0.129131,-0.234295 -0.03672,-0.173018 0.05257,0.03486 0.07855,0.09533 0.04432,0.103144 -0.0166,0.0038 -0.01554,0.01293 0.0048,0.04188 0.02989,0.04258 0.0243,0.05525 -0.01225,0.02803 z m -0.485356,-0.130809 c -0.04086,-0.01052 -0.67018,0.03587 -0.731506,0.054 -0.08473,0.02505 -0.142923,0.04764 -0.137474,0.05337 0.0057,0.006 0.177597,-0.02812 0.191036,-0.03811 0.0068,-0.0051 0.0674,0.01457 0.134679,0.04349 0.111229,0.04797 0.126852,0.05141 0.172956,0.03805 0.05184,-0.01504 0.29064,-0.107568 0.342027,-0.132543 0.0157,-0.0077 0.03075,-0.01429 0.03349,-0.01478 0.0027,-3.73e-4 4.09e-4,-0.0023 -0.0051,-0.0035 z m -1.571769,0.771922 c -0.02669,-0.329471 -0.01762,-0.306831 -0.110682,-0.27661 l -0.0748,0.0243 0.01952,0.283929 c 0.01072,0.156167 0.02456,0.285239 0.03072,0.286835 0.0143,0.0037 0.126255,-0.021 0.14421,-0.03183 0.0075,-0.0045 0.0035,-0.133495 -0.0089,-0.286619 z m 0.147339,-0.130047 c -0.01925,-0.226716 -0.01588,-0.218011 -0.07702,-0.199104 -0.07316,0.02262 -0.07224,0.01886 -0.05555,0.228388 l 0.01568,0.196405 0.0615,-0.01466 c 0.03383,-0.0081 0.06379,-0.01556 0.0666,-0.01665 0.0027,-0.001 -0.0023,-0.08857 -0.01126,-0.194387 z m -3.34832,2.412748 c 0.07635,-0.07837 0.146204,-0.147875 0.15524,-0.154464 0.0089,-0.0065 0.03256,-0.03121 0.05228,-0.05469 0.01972,-0.02351 0.142413,-0.151173 0.27265,-0.283737 0.130237,-0.132562 0.263775,-0.271791 0.296749,-0.309399 l 0.05995,-0.06838 -0.152817,2.75e-4 c -0.346951,6.89e-4 -0.564284,0.01849 -0.567797,0.0466 -0.0018,0.0143 -0.02038,0.05737 -0.04123,0.09572 -0.05645,0.103563 -0.429095,0.889843 -0.427513,0.902065 0.0032,0.02616 0.03571,6.58e-4 0.06337,-0.05003 0.326149,-0.597664 0.419179,-0.769173 0.464044,-0.855503 0.02949,-0.05676 0.05925,-0.107361 0.06614,-0.112471 0.03253,-0.02416 0.0068,0.0364 -0.09178,0.215787 -0.139744,0.254394 -0.395836,0.732195 -0.423151,0.789483 -0.0108,0.02261 0.07816,0.01571 0.11942,-0.0093 0.0086,-0.0052 0.07811,-0.07361 0.154463,-0.151963 z m 3.681117,-3.303401 C 85.723787,14.951885 85.459833,14.73779 85.318633,14.624125 l -0.256727,-0.206663 -0.0721,0.01005 c -0.0939,0.0131 -0.113009,-0.01194 0.234064,0.307338 0.786466,0.723589 0.815007,0.748951 0.822423,0.730822 0.0029,-0.0071 0.04216,-0.02947 0.08707,-0.04958 0.04495,-0.02009 0.08622,-0.0389 0.09169,-0.04179 0.006,-0.0033 -0.118965,-0.110481 -0.319866,-0.274389 z m -2.820079,1.715961 c -0.2411,-0.07821 -0.461961,-0.149598 -0.490766,-0.158772 -0.0288,-0.0092 -0.20021,-0.06525 -0.380907,-0.124584 -0.638466,-0.209819 -1.048796,-0.34077 -1.088957,-0.347526 -0.01596,-0.0027 -0.04743,-0.01469 -0.06997,-0.02672 -0.05431,-0.0288 -0.209551,-0.0087 -0.356211,0.04597 -0.07517,0.02804 -0.07484,0.02919 0.02459,0.08616 0.04525,0.02594 0.096,0.05585 0.112806,0.06651 0.03265,0.02063 0.08067,0.01852 0.112444,-0.0051 0.01469,-0.01093 0.03706,-0.0059 0.09089,0.02047 0.03926,0.01927 0.304643,0.145136 0.589727,0.279806 0.285084,0.134664 0.572656,0.271177 0.639041,0.303374 0.23779,0.115336 0.564346,0.266444 0.577952,0.267436 0.03606,0.0027 0.590672,-0.206355 0.645668,-0.243292 l 0.03214,-0.02156 z m -0.293685,0.41191 c -0.0044,-0.0048 -0.01638,-0.0109 -0.02638,-0.01334 -0.0099,-0.0027 -0.21239,-0.09773 -0.449831,-0.21143 -1.176391,-0.563348 -1.3337,-0.635063 -1.366022,-0.622766 -0.0446,0.01697 -0.04998,0.01286 0.235304,0.178512 0.14512,0.08426 0.292562,0.172616 0.32764,0.196352 0.03509,0.02372 0.08262,0.04997 0.105634,0.05834 0.02302,0.0084 0.04601,0.01957 0.05109,0.02494 0.0051,0.0054 0.0821,0.05038 0.171145,0.100111 0.08904,0.0497 0.201193,0.114133 0.249212,0.143169 0.04802,0.02902 0.14698,0.08652 0.219901,0.127755 0.0729,0.04125 0.135983,0.07856 0.14014,0.08292 0.02033,0.02135 0.08031,0.01812 0.198924,-0.01034 0.137761,-0.03317 0.156497,-0.04025 0.143239,-0.05418 z m 2.23666,-2.041212 c -0.02169,-0.02719 -0.09831,-0.118266 -0.170232,-0.202412 -0.07193,-0.08416 -0.195394,-0.229976 -0.27436,-0.324086 -0.15803,-0.188307 -0.151894,-0.183626 -0.207366,-0.158299 l -0.03922,0.01789 0.114985,0.168953 c 0.06324,0.09294 0.18202,0.268387 0.263953,0.38992 0.08193,0.121532 0.152764,0.221956 0.157405,0.22316 0.0086,0.0022 0.164406,-0.04822 0.183663,-0.05948 0.006,-0.0036 -0.0066,-0.02782 -0.02884,-0.05563 z m 1.065163,-0.794242 c -0.08135,-0.06882 -0.127268,-0.189109 -0.06898,-0.180624 0.02339,0.0035 0.02151,0.0019 -0.01036,-0.0087 -0.02146,-0.007 -0.06577,-0.0058 -0.09848,0.0026 -0.03271,0.0086 -0.09334,0.02 -0.134716,0.0255 -0.0414,0.0055 -0.07749,0.01464 -0.08023,0.02028 -0.0027,0.0055 0.02038,0.0063 0.05138,0.0013 0.173026,-0.02734 -0.06821,0.121515 -0.34871,0.215189 -0.05134,0.01715 -0.09293,0.03314 -0.09243,0.03557 0.02021,0.0963 0.10428,0.175623 0.169753,0.160139 0.16084,-0.03805 0.454296,-0.1449 0.617763,-0.224964 0.01567,-0.0077 0.02986,-0.01372 0.03154,-0.01345 0.0017,3.44e-4 -0.01471,-0.01453 -0.03646,-0.03297 z m 0.05926,-0.04795 c -0.02901,-0.0596 -0.04367,-0.06821 -0.05911,-0.0348 -0.01311,0.02858 0.01427,0.07929 0.03471,0.06408 0.0049,-0.0037 0.01371,0.0019 0.01948,0.01234 0.01816,0.03317 0.02268,-0.0051 0.0049,-0.04168 z m -0.425038,-0.06027 c -0.07435,-0.01747 -0.638652,0.06094 -0.719855,0.100058 l -0.04177,0.02013 0.05942,-0.0036 c 0.04255,-0.0026 0.08514,0.0076 0.149991,0.03554 0.124452,0.05381 0.114966,0.05439 0.293074,-0.01779 0.20358,-0.0825 0.289717,-0.127157 0.259155,-0.134345 z m -3.315774,2.244649 c -0.02426,-0.02018 -0.0882,-0.07065 -0.142081,-0.112151 -0.05388,-0.04149 -0.125628,-0.09704 -0.159442,-0.123423 l -0.06149,-0.048 -0.06935,0.02013 c -0.104394,0.0303 -0.104227,0.02986 -0.03799,0.09941 l 0.05722,0.06007 0.22483,0.07309 c 0.251651,0.08187 0.249215,0.08146 0.188285,0.03085 z"
         id="path8742"
         inkscape:connector-curvature="0"
         clip-path="none" /><g
         id="g775"
         transform="matrix(-0.12703464,0.10501748,0.12740775,0.1326582,80.571747,11.94989)"
         clip-path="none"
         inkscape:label="Sheep"><g
           id="g701"
           transform="matrix(0.89229,-0.082428,0.082428,0.89229,-7.6699,12.078)"><g
             id="g693"
             transform="matrix(-1,0,0,1,143.73,-10.678)"><path
               id="path689"
               style="fill:#ce9b7c;stroke:#000000;stroke-width:4"
               inkscape:connector-curvature="0"
               d="M 55.932,60.847 57.4574,90.508 62.8811,89.491 60.5082,59.66 Z" /><path
               id="path691"
               d="M 55.932,60.847 57.4574,90.508 62.8811,89.491 60.5082,59.66 Z"
               style="fill:#ce9b7c"
               inkscape:connector-curvature="0" /></g><g
             id="g699"
             transform="translate(43.051,-10.678)"><path
               id="path695"
               d="M 55.932,60.847 57.4574,90.508 62.8811,89.491 60.5082,59.66 Z"
               style="fill:#ce9b7c;stroke:#000000;stroke-width:4"
               inkscape:connector-curvature="0" /><path
               id="path697"
               style="fill:#ce9b7c"
               inkscape:connector-curvature="0"
               d="M 55.932,60.847 57.4574,90.508 62.8811,89.491 60.5082,59.66 Z" /></g></g><path
           id="path715"
           style="fill:#ffffff"
           inkscape:connector-curvature="0"
           d="M 94.518,55.269 A 11.47916,9.6240507 76.332 0 1 87.566,33.413 11.47916,9.6240507 76.332 1 1 94.518,55.269 Z" /><path
           id="path717"
           d="M 46.645,0 C 40.656,0 35.475,3.7119 34.085,8.8881 32.902,8.5615 31.663,8.3504 30.358,8.3504 c -6.0206,0 -11.069,3.7751 -12.435,9.0146 -5.7407,1.1129 -10.305,5.5447 -10.305,11.229 0,1.5373 0.43065,2.9367 1.0336,4.2701 -1.8324,1.2621 -3.6898,2.5242 -5.0741,3.8272 -1.7799,1.6755 -3.2022,3.1035 -3.508,5.2822 -0.33506,2.3871 0.65681,4.5384 2.0672,6.1363 1.2122,1.3733 2.7799,2.3323 4.4163,2.9416 1.3729,2.009 3.4658,3.3843 5.8258,4.3333 -0.98009,3.5809 -1.746,7.0564 -2.0672,10.058 -0.37286,3.4841 -0.40946,6.3565 0.90832,8.635 2.6868,4.6457 8.2174,6.1972 13.186,5.8832 4.969,-0.31396 9.9516,-2.3693 11.526,-6.7689 0.02836,-0.07935 0.06595,-0.20048 0.09391,-0.28467 0.86,0.16802 1.6749,0.44282 2.5997,0.44282 4.0376,0 7.6763,-1.6543 10.086,-4.3333 2.3876,2.8004 6.0685,4.5864 10.211,4.5864 6.1344,0 11.485,-3.8885 12.717,-9.2676 1.2905,0.3913 2.6353,0.66423 4.0718,0.66423 6.3671,0 11.832,-4.2022 12.779,-9.9002 12.368,10.373 21.132,-18.948 2.251,-24.119 0.39474,-1.0996 1.2257,-3.6892 1.2257,-4.9175 0,-6.5651 -5.9939,-11.64 -12.998,-11.64 -0.64156,0 -1.1995,0.2355 -1.8166,0.3163 -0.118,-6.4697 -6.033,-11.45 -12.968,-11.45 -2.5458,0 -4.8161,0.81102 -6.8281,1.9611 -2.364,-3.1843 -6.258,-5.2501 -10.712,-5.2501 z m 0,2.0243 c 4.5353,0 8.4442,2.423 10.117,5.8516 1.9561,-1.5778 4.551,-2.562 7.4232,-2.562 6.0614,0 10.994,4.3198 10.994,9.6156 0,0.76536 -0.11932,1.5006 -0.31322,2.2141 1.2704,-0.44905 2.6484,-0.69586 4.1031,-0.69586 6.0614,0 10.994,4.3198 10.994,9.6156 0,3.6045 -2.3039,6.7124 -5.6692,8.3504 0.37371,0.23088 0.72773,0.49021 1.0649,0.75912 18.271,-10.297 18.373,32.533 1.1589,16.384 0.12809,0.58605 0.18793,1.2159 0.18793,1.8346 0,5.2958 -4.9325,9.5839 -10.994,9.5839 -2.1433,0 -4.136,-0.55854 -5.8258,-1.4866 0.01012,0.16862 0.03137,0.33527 0.03137,0.50608 0,5.2958 -4.9325,9.5839 -10.994,9.5839 -4.6522,0 -8.5821,-2.5344 -10.179,-6.1046 -1.6661,3.4416 -5.5708,5.8516 -10.117,5.8516 -1.4331,0 -2.7855,-0.25939 -4.0405,-0.69586 -0.1801,0.76978 -0.36948,1.4424 -0.53246,1.8978 -2.2507,6.2881 -16.793,8.0032 -21.111,0.53771 -1.6793,-2.9036 -0.63478,-10.558 1.7853,-18.788 -2.979,-0.702 -5.4563,-2.468 -6.8602,-4.807 -3.0261,-0.841 -6.2873,-3.924 -5.8258,-7.212 0.2993,-2.132 4.3977,-5.776 9.115,-8.793 -0.974,-1.432 -1.5352,-3.085 -1.5352,-4.871 0,-4.9555 4.3156,-9.0488 9.8349,-9.5523 0.54558,-4.8501 5.2052,-8.6667 10.9,-8.6667 1.9358,0 3.7457,0.46504 5.3247,1.2336 0.01964,-5.2811 4.9133,-9.5839 10.963,-9.5839 z"
           sodipodi:nodetypes="ccscscsssccsssccscscsccsscscccccsscsscccsscsscscssccscscsccc"
           style="color:#000000;text-indent:0;text-transform:none;fill:#252238"
           inkscape:connector-curvature="0" /><path
           id="path719"
           style="fill:#ffffff"
           inkscape:connector-curvature="0"
           d="m 81.703,37.689 a 31.538,27.555 0 0 1 -63.076,0 31.538,27.555 0 1 1 63.076,0 z" /><path
           id="path721"
           style="fill:#ffffff"
           inkscape:connector-curvature="0"
           d="m 86.698,53.377 a 10.975,9.5889 0 1 1 -21.95,0 10.975,9.5889 0 1 1 21.95,0 z" /><path
           id="path723"
           style="fill:#ffffff"
           inkscape:connector-curvature="0"
           d="m 88.953,42.243 a 10.975,9.5889 0 1 1 -21.95,0 10.975,9.5889 0 1 1 21.95,0 z" /><path
           id="path725"
           style="fill:#ffffff"
           inkscape:connector-curvature="0"
           d="m 89.956,26.049 a 10.975,9.5889 0 1 1 -21.95,0 10.975,9.5889 0 1 1 21.95,0 z" /><path
           id="path727"
           style="fill:#ffffff"
           inkscape:connector-curvature="0"
           d="m 75.172,14.915 a 10.975,9.5889 0 1 1 -21.95,0 10.975,9.5889 0 1 1 21.95,0 z" /><path
           id="path729"
           style="fill:#ffffff"
           inkscape:connector-curvature="0"
           d="m 57.632,11.625 a 10.975,9.5889 0 1 1 -21.95,0 10.975,9.5889 0 1 1 21.95,0 z" /><path
           id="path731"
           style="fill:#ffffff"
           inkscape:connector-curvature="0"
           d="m 41.345,19.976 a 10.975,9.5889 0 1 1 -21.95,0 10.975,9.5889 0 1 1 21.95,0 z" /><path
           id="path733"
           style="fill:#ffffff"
           inkscape:connector-curvature="0"
           d="m 31.572,28.579 a 10.975,9.5889 0 1 1 -21.95,0 10.975,9.5889 0 1 1 21.95,0 z" /><path
           id="path735"
           style="fill:#ffffff"
           inkscape:connector-curvature="0"
           d="m 28.566,45.027 a 10.975,9.5889 0 1 1 -21.95,0 10.975,9.5889 0 1 1 21.95,0 z" /><path
           id="path737"
           style="fill:#ffffff"
           inkscape:connector-curvature="0"
           d="m 38.839,52.112 a 10.975,9.5889 0 1 1 -21.95,0 10.975,9.5889 0 1 1 21.95,0 z" /><path
           id="path739"
           style="fill:#ffffff"
           inkscape:connector-curvature="0"
           d="m 49.614,61.728 a 10.975,9.5889 0 1 1 -21.95,0 10.975,9.5889 0 1 1 21.95,0 z" /><path
           id="path741"
           d="m 32.723,26.906 c -0.19833,-0.0025 -0.38222,0.01324 -0.5625,0.03125 -0.27398,0.02737 -0.52206,0.1099 -0.75,0.1875 -1.7478,-0.03366 -3.6358,1.2957 -5.5312,3.5312 0.01932,-0.68518 -0.16141,-1.2637 -0.625,-1.6562 -3.8799,-3.2851 -22.566,8.6341 -23.219,13.281 -0.6523,4.6472 6.1316,8.8489 9.1875,6.9375 1.3721,-0.85823 5.1026,-4.3554 8.4688,-8.25 -5.5076,11.823 -9.3452,27.606 -6.75,32.094 4.3176,7.4655 18.874,5.7569 21.125,-0.53125 0.29396,-0.82129 0.63642,-2.2884 0.96875,-4.0625 0.48623,0.42482 0.89134,0.74055 1.1562,0.90625 2.0371,1.2742 6.5598,-1.5271 6.125,-4.625 -0.19676,-1.4018 -2.8786,-3.7862 -5.9688,-5.7812 0.61205,-5.9763 0.97052,-12.851 0.625,-18.688 3.1633,3.5528 6.5073,6.6407 7.7812,7.4375 3.0559,1.9114 9.8085,-2.3216 9.1562,-6.9688 -0.57268,-4.0799 -15.039,-13.767 -21.188,-13.844 z"
           style="fill:#ce9b7c;stroke:#000000;stroke-width:4"
           inkscape:connector-curvature="0" /><path
           id="path743"
           style="fill:#ffffff"
           inkscape:connector-curvature="0"
           d="m 69.91,61.981 a 10.975,9.5889 0 1 1 -21.95,0 10.975,9.5889 0 1 1 21.95,0 z" /><path
           id="path745"
           d="m 11.222,49.226 c 3.056,-1.911 17.913,-16.93 14.033,-20.215 -3.88,-3.285 -22.557,8.61 -23.209,13.257 -0.6523,4.6472 6.1203,8.8701 9.1762,6.9587 z"
           style="fill:#ce9b7c"
           inkscape:connector-curvature="0" /><path
           id="path747"
           d="M 44.741,47.708 C 41.685,45.797 26.828,30.778 30.708,27.493 c 3.8799,-3.2851 22.557,8.6095 23.209,13.257 0.6523,4.6472 -6.1203,8.8701 -9.1762,6.9587 z"
           style="fill:#ce9b7c"
           inkscape:connector-curvature="0" /><path
           id="path749"
           d="M 36.189,69.374 C 34.152,68.1 24.248,58.088 26.834,55.898 c 2.5864,-2.1899 15.037,5.7392 15.472,8.837 0.43483,3.0979 -4.0799,5.9129 -6.117,4.6387 z"
           style="fill:#ff4b4b"
           inkscape:connector-curvature="0" /><g
           id="g3252"
           transform="matrix(-0.31445591,0.28811889,0.18929172,0.16640824,29.407543,-116.9695)"
           inkscape:label="box"><path
             id="path8079"
             style="fill:#c23d36"
             inkscape:connector-curvature="0"
             d="m 291.59,576.12 v 42.594 l 39.875,23.031 v -42.688 l -0.0625,0.0312 -39.812,-22.969 z" /><path
             id="path8055"
             sodipodi:nodetypes="cccccc"
             style="fill:#c23d36"
             inkscape:connector-curvature="0"
             d="m 288.45,574.3 42.958,24.792 0.0625,-0.0312 -0.0606,-10.588 -42.96,-24.736 z" /><path
             id="path8082"
             style="fill:#d64a43"
             inkscape:connector-curvature="0"
             d="m 331.47,599.06 v 42.688 l 46.031,-26.594 v -42.656 z" /><path
             id="path8057"
             sodipodi:nodetypes="ccccc"
             style="fill:#d64a43"
             inkscape:connector-curvature="0"
             d="m 331.47,599.06 49.037,-28.304 v -10.63 l -49.098,28.346 z" /><path
             id="path8059"
             d="m 288.45,563.67 49.098,-28.346 42.96,24.803 -49.098,28.346 z"
             sodipodi:nodetypes="ccccc"
             style="fill:#da5d57"
             inkscape:connector-curvature="0" /><path
             id="path8072"
             style="fill:#ab3630"
             inkscape:connector-curvature="0"
             d="m 331.41,599.22 -39.875,-23.031 v 3.5312 l 39.875,23.031 z" /><path
             id="path8067"
             style="fill:#b53933"
             inkscape:connector-curvature="0"
             d="m 331.41,599.22 v 3.5312 l 46.031,-26.562 v -3.5312 z" /><path
             id="path8084-2"
             sodipodi:nodetypes="ccc"
             style="fill:#cccccc"
             inkscape:connector-curvature="0"
             d="m 377.52,607.52 c -3.3051,5.7247 -3.331,5.8071 -3.331,9.6159 5.7706,-1.4197 3.4384,-5.0392 3.331,-9.6159 z" /><path
             id="path8162"
             sodipodi:nodetypes="cccc"
             style="fill:#b4b4b4"
             inkscape:connector-curvature="0"
             d="m 377.66,561.84 c 0.36059,1.3218 1.1015,2.8283 2.9688,6.0625 0.0747,-3.1856 1.1316,-5.939 -0.12062,-7.7781 z" /><path
             id="path8084-2-5"
             sodipodi:nodetypes="cccc"
             style="fill:#cccccc"
             inkscape:connector-curvature="0"
             d="m 377.66,561.84 2.8481,-1.7156 c -0.54681,-0.8031 -1.4691,-1.4154 -3.2231,-1.8469 0,1.657 0.0973,2.5447 0.375,3.5625 z" /><path
             id="path8157"
             style="fill:#a3a3a3"
             inkscape:connector-curvature="0"
             d="m 331.41,588.46 -6.125,-3.5312 c 1.5343,4.4291 3.8296,6.6562 6.125,6.6562 z" /><path
             id="path8154"
             style="fill:#bcbcbc"
             inkscape:connector-curvature="0"
             d="m 331.41,588.46 v 3.125 c 2.2954,0 4.5907,-2.2271 6.125,-6.6562 z" /><path
             id="path8147"
             style="fill:#cccccc"
             inkscape:connector-curvature="0"
             d="m 325.28,584.93 6.125,3.5312 6.125,-3.5312 c -4.0915,-2.0122 -8.1585,-2.1952 -12.25,0 z" /><path
             id="path8147-2"
             style="fill:#cccccc"
             inkscape:connector-curvature="0"
             d="m 333.15,537.84 4.4601,-2.5714 4.4601,2.5714 c -2.9793,1.4652 -5.9408,1.5985 -8.9201,0 z" /><path
             id="path8187"
             sodipodi:nodetypes="ccccc"
             style="fill:#9f2e2e"
             inkscape:connector-curvature="0"
             d="m 349.82,577.84 v 10.63 l 15.343,-8.8583 v -10.63 z" /><path
             id="path8189"
             style="fill:#cccccc"
             inkscape:connector-curvature="0"
             d="m 352.89,579.61 v 7.0866 l 9.2058,-5.315 v -7.0866 z" /><path
             id="path8191"
             style="fill:#9f2e2e"
             inkscape:connector-curvature="0"
             d="m 362.09,581.38 v 14.173 l -12.274,7.0866 v -14.173 z" /><path
             id="path8199"
             sodipodi:nodetypes="ccccc"
             d="m 331.41,598.97 v 0.81647 l 46.031,-26.562 V 572.408 Z"
             style="fill:#cccccc"
             inkscape:connector-curvature="0" /><path
             id="path8193"
             sodipodi:nodetypes="ccccc"
             style="fill:#b3b3b3"
             inkscape:connector-curvature="0"
             d="m 352.89,590.24 v 7.0866 l 6.1372,-3.5433 v -7.0866 z" /><path
             id="path8197"
             sodipodi:nodetypes="ccccc"
             d="m 331.41,598.97 -39.875,-23.031 v 0.81647 l 39.875,23.031 z"
             style="fill:#cccccc"
             inkscape:connector-curvature="0" /><path
             id="path8147-2-6"
             style="fill:#cccccc"
             inkscape:connector-curvature="0"
             d="m 292.39,565.96 -3.9261,-2.3404 3.9811,-2.3296 c 2.2345,1.5629 2.4211,3.1136 -0.055,4.6701 z" /><path
             id="path8154-5"
             sodipodi:nodetypes="cccc"
             inkscape:connector-curvature="0"
             style="fill:#999999"
             d="m 288.43,563.61 0.01,1.9989 c 0.80974,1.445 3.0806,0.83905 4.0106,0.32027 z" /></g><path
           id="path751"
           style="fill:#ce9b7c;stroke:#000000;stroke-width:3"
           inkscape:connector-curvature="0"
           d="m 34.062,72.522 c 2.25,-6.288 6.712,-45.131 -2.61,-45.398 -9.323,-0.266 -22.838,38.473 -18.521,45.938 4.318,7.466 18.88,5.748 21.131,-0.54 z" /><path
           id="path753"
           d="m 34.062,72.522 c 2.25,-6.288 6.712,-45.131 -2.61,-45.398 -9.323,-0.266 -22.838,38.473 -18.521,45.938 4.318,7.466 18.88,5.748 21.131,-0.54 z"
           style="fill:#ce9b7c"
           inkscape:connector-curvature="0" /><path
           id="path755"
           style="fill:#000000"
           inkscape:connector-curvature="0"
           d="m 29.762,37.165 a 7.392,14.8032 0 0 1 -14.784,0 7.392,14.8032 0 1 1 14.784,0 z" /><path
           id="path757"
           d="m 28.873,38.06 a 6.9451,13.908 0 0 1 -13.89,0 6.9451,13.908 0 1 1 13.89,0 z"
           style="fill:#ffffff;stroke:#000000;stroke-width:3"
           inkscape:connector-curvature="0" /><path
           id="path759"
           style="fill:#ffffff"
           inkscape:connector-curvature="0"
           d="m 28.873,38.06 a 6.9451,13.908 0 0 1 -13.89,0 6.9451,13.908 0 1 1 13.89,0 z" /><path
           id="path761"
           d="m 43.878,40.294 a 6.9451,13.908 0 0 1 -13.89,0 6.9451,13.908 0 1 1 13.89,0 z"
           style="fill:#ffffff;stroke:#000000;stroke-width:3"
           inkscape:connector-curvature="0"
           inkscape:label="path761" /><path
           id="path763"
           style="fill:#000000"
           inkscape:connector-curvature="0"
           d="m 44.767,39.399 a 7.392,14.8032 0 0 1 -14.784,0 7.392,14.8032 0 1 1 14.784,0 z" /><path
           id="path765"
           style="fill:#ffffff"
           inkscape:connector-curvature="0"
           d="m 43.878,40.294 a 6.9451,13.908 0 0 1 -13.89,0 6.9451,13.908 0 1 1 13.89,0 z" /><path
           id="path767"
           d="m 25.552,35.252 a 3.1893,5.2112 0 1 1 -6.3785,0 3.1893,5.2112 0 1 1 6.3785,0 z"
           style="fill:#000000"
           inkscape:connector-curvature="0" /><path
           id="path769"
           d="m 42.916,38.473 a 3.1893,5.2112 0 1 1 -6.3785,0 3.1893,5.2112 0 1 1 6.3785,0 z"
           style="fill:#000000"
           inkscape:connector-curvature="0" /><path
           id="path771"
           d="m 18.997,72.917 a 1.1467,0.71571 0 1 1 0,1.4314 1.1467,0.71571 0 1 1 0,-1.4314 z"
           style="fill:#000000"
           inkscape:connector-curvature="0" /><path
           id="path773"
           d="m 25.021,73.185 a 1.1467,0.71571 0 1 1 0,1.4314 1.1467,0.71571 0 1 1 0,-1.4314 z"
           style="fill:#000000"
           inkscape:connector-curvature="0" /></g></g></g></svg>
